%TF.GenerationSoftware,KiCad,Pcbnew,10.0.5*%
%TF.CreationDate,2026-08-09T14:35:23+05:30*%
%TF.ProjectId,SMARTMOTOR_X,534d4152-544d-44f5-944f-525f582e6b69,rev?*%
%TF.SameCoordinates,Original*%
%TF.FileFunction,Legend,Top*%
%TF.FilePolarity,Positive*%
%FSLAX46Y46*%
G04 Gerber Fmt 4.6, Leading zero omitted, Abs format (unit mm)*
G04 Created by KiCad (PCBNEW 10.0.5) date 2026-08-09 14:35:23*
%MOMM*%
%LPD*%
G01*
G04 APERTURE LIST*
G04 Aperture macros list*
%AMRoundRect*
0 Rectangle with rounded corners*
0 $1 Rounding radius*
0 $2 $3 $4 $5 $6 $7 $8 $9 X,Y pos of 4 corners*
0 Add a 4 corners polygon primitive as box body*
4,1,4,$2,$3,$4,$5,$6,$7,$8,$9,$2,$3,0*
0 Add four circle primitives for the rounded corners*
1,1,$1+$1,$2,$3*
1,1,$1+$1,$4,$5*
1,1,$1+$1,$6,$7*
1,1,$1+$1,$8,$9*
0 Add four rect primitives between the rounded corners*
20,1,$1+$1,$2,$3,$4,$5,0*
20,1,$1+$1,$4,$5,$6,$7,0*
20,1,$1+$1,$6,$7,$8,$9,0*
20,1,$1+$1,$8,$9,$2,$3,0*%
G04 Aperture macros list end*
%ADD10C,0.150000*%
%ADD11C,0.120000*%
%ADD12RoundRect,0.200000X-0.200000X-0.275000X0.200000X-0.275000X0.200000X0.275000X-0.200000X0.275000X0*%
%ADD13R,1.700000X1.700000*%
%ADD14C,1.700000*%
%ADD15C,1.500000*%
%ADD16RoundRect,0.225000X-0.225000X-0.250000X0.225000X-0.250000X0.225000X0.250000X-0.225000X0.250000X0*%
%ADD17RoundRect,0.075000X-0.650000X-0.075000X0.650000X-0.075000X0.650000X0.075000X-0.650000X0.075000X0*%
%ADD18C,0.500000*%
%ADD19R,1.700000X1.000000*%
%ADD20R,2.000000X2.000000*%
%ADD21C,2.000000*%
%ADD22RoundRect,0.250000X-0.375000X-0.625000X0.375000X-0.625000X0.375000X0.625000X-0.375000X0.625000X0*%
%ADD23RoundRect,0.218750X-0.218750X-0.256250X0.218750X-0.256250X0.218750X0.256250X-0.218750X0.256250X0*%
%ADD24R,1.730000X2.030000*%
%ADD25O,1.730000X2.030000*%
%ADD26RoundRect,0.150000X-0.512500X-0.150000X0.512500X-0.150000X0.512500X0.150000X-0.512500X0.150000X0*%
%ADD27RoundRect,0.150000X-0.825000X-0.150000X0.825000X-0.150000X0.825000X0.150000X-0.825000X0.150000X0*%
%ADD28R,0.850000X1.100000*%
%ADD29R,0.750000X1.100000*%
%ADD30R,1.200000X1.000000*%
%ADD31R,1.550000X1.350000*%
%ADD32R,1.900000X1.350000*%
%ADD33R,1.170000X1.800000*%
%ADD34RoundRect,0.150000X-0.587500X-0.150000X0.587500X-0.150000X0.587500X0.150000X-0.587500X0.150000X0*%
%ADD35R,1.500000X0.900000*%
%ADD36R,0.900000X1.500000*%
%ADD37C,0.600000*%
%ADD38R,3.900000X3.900000*%
%ADD39RoundRect,0.250000X-0.362500X-1.425000X0.362500X-1.425000X0.362500X1.425000X-0.362500X1.425000X0*%
%ADD40RoundRect,0.100000X-0.850000X-0.100000X0.850000X-0.100000X0.850000X0.100000X-0.850000X0.100000X0*%
%ADD41RoundRect,0.087500X-0.187500X-0.087500X0.187500X-0.087500X0.187500X0.087500X-0.187500X0.087500X0*%
%ADD42RoundRect,0.087500X-0.087500X-0.187500X0.087500X-0.187500X0.087500X0.187500X-0.087500X0.187500X0*%
%ADD43RoundRect,0.225000X0.250000X-0.225000X0.250000X0.225000X-0.250000X0.225000X-0.250000X-0.225000X0*%
%ADD44C,1.100000*%
%ADD45C,0.650000*%
%ADD46RoundRect,0.150000X-0.150000X-0.425000X0.150000X-0.425000X0.150000X0.425000X-0.150000X0.425000X0*%
%ADD47RoundRect,0.075000X-0.075000X-0.500000X0.075000X-0.500000X0.075000X0.500000X-0.075000X0.500000X0*%
%ADD48O,1.000000X2.100000*%
%ADD49O,1.000000X1.800000*%
G04 APERTURE END LIST*
D10*
X166032142Y-89524819D02*
X165698809Y-89048628D01*
X165460714Y-89524819D02*
X165460714Y-88524819D01*
X165460714Y-88524819D02*
X165841666Y-88524819D01*
X165841666Y-88524819D02*
X165936904Y-88572438D01*
X165936904Y-88572438D02*
X165984523Y-88620057D01*
X165984523Y-88620057D02*
X166032142Y-88715295D01*
X166032142Y-88715295D02*
X166032142Y-88858152D01*
X166032142Y-88858152D02*
X165984523Y-88953390D01*
X165984523Y-88953390D02*
X165936904Y-89001009D01*
X165936904Y-89001009D02*
X165841666Y-89048628D01*
X165841666Y-89048628D02*
X165460714Y-89048628D01*
X166984523Y-89524819D02*
X166413095Y-89524819D01*
X166698809Y-89524819D02*
X166698809Y-88524819D01*
X166698809Y-88524819D02*
X166603571Y-88667676D01*
X166603571Y-88667676D02*
X166508333Y-88762914D01*
X166508333Y-88762914D02*
X166413095Y-88810533D01*
X167317857Y-88524819D02*
X167936904Y-88524819D01*
X167936904Y-88524819D02*
X167603571Y-88905771D01*
X167603571Y-88905771D02*
X167746428Y-88905771D01*
X167746428Y-88905771D02*
X167841666Y-88953390D01*
X167841666Y-88953390D02*
X167889285Y-89001009D01*
X167889285Y-89001009D02*
X167936904Y-89096247D01*
X167936904Y-89096247D02*
X167936904Y-89334342D01*
X167936904Y-89334342D02*
X167889285Y-89429580D01*
X167889285Y-89429580D02*
X167841666Y-89477200D01*
X167841666Y-89477200D02*
X167746428Y-89524819D01*
X167746428Y-89524819D02*
X167460714Y-89524819D01*
X167460714Y-89524819D02*
X167365476Y-89477200D01*
X167365476Y-89477200D02*
X167317857Y-89429580D01*
X91666666Y-86954819D02*
X91666666Y-87669104D01*
X91666666Y-87669104D02*
X91619047Y-87811961D01*
X91619047Y-87811961D02*
X91523809Y-87907200D01*
X91523809Y-87907200D02*
X91380952Y-87954819D01*
X91380952Y-87954819D02*
X91285714Y-87954819D01*
X92047619Y-86954819D02*
X92666666Y-86954819D01*
X92666666Y-86954819D02*
X92333333Y-87335771D01*
X92333333Y-87335771D02*
X92476190Y-87335771D01*
X92476190Y-87335771D02*
X92571428Y-87383390D01*
X92571428Y-87383390D02*
X92619047Y-87431009D01*
X92619047Y-87431009D02*
X92666666Y-87526247D01*
X92666666Y-87526247D02*
X92666666Y-87764342D01*
X92666666Y-87764342D02*
X92619047Y-87859580D01*
X92619047Y-87859580D02*
X92571428Y-87907200D01*
X92571428Y-87907200D02*
X92476190Y-87954819D01*
X92476190Y-87954819D02*
X92190476Y-87954819D01*
X92190476Y-87954819D02*
X92095238Y-87907200D01*
X92095238Y-87907200D02*
X92047619Y-87859580D01*
X177261905Y-110456819D02*
X177833333Y-110456819D01*
X177547619Y-111456819D02*
X177547619Y-110456819D01*
X178166667Y-111456819D02*
X178166667Y-110456819D01*
X178166667Y-110456819D02*
X178547619Y-110456819D01*
X178547619Y-110456819D02*
X178642857Y-110504438D01*
X178642857Y-110504438D02*
X178690476Y-110552057D01*
X178690476Y-110552057D02*
X178738095Y-110647295D01*
X178738095Y-110647295D02*
X178738095Y-110790152D01*
X178738095Y-110790152D02*
X178690476Y-110885390D01*
X178690476Y-110885390D02*
X178642857Y-110933009D01*
X178642857Y-110933009D02*
X178547619Y-110980628D01*
X178547619Y-110980628D02*
X178166667Y-110980628D01*
X179690476Y-111456819D02*
X179119048Y-111456819D01*
X179404762Y-111456819D02*
X179404762Y-110456819D01*
X179404762Y-110456819D02*
X179309524Y-110599676D01*
X179309524Y-110599676D02*
X179214286Y-110694914D01*
X179214286Y-110694914D02*
X179119048Y-110742533D01*
X180309524Y-110456819D02*
X180404762Y-110456819D01*
X180404762Y-110456819D02*
X180500000Y-110504438D01*
X180500000Y-110504438D02*
X180547619Y-110552057D01*
X180547619Y-110552057D02*
X180595238Y-110647295D01*
X180595238Y-110647295D02*
X180642857Y-110837771D01*
X180642857Y-110837771D02*
X180642857Y-111075866D01*
X180642857Y-111075866D02*
X180595238Y-111266342D01*
X180595238Y-111266342D02*
X180547619Y-111361580D01*
X180547619Y-111361580D02*
X180500000Y-111409200D01*
X180500000Y-111409200D02*
X180404762Y-111456819D01*
X180404762Y-111456819D02*
X180309524Y-111456819D01*
X180309524Y-111456819D02*
X180214286Y-111409200D01*
X180214286Y-111409200D02*
X180166667Y-111361580D01*
X180166667Y-111361580D02*
X180119048Y-111266342D01*
X180119048Y-111266342D02*
X180071429Y-111075866D01*
X180071429Y-111075866D02*
X180071429Y-110837771D01*
X180071429Y-110837771D02*
X180119048Y-110647295D01*
X180119048Y-110647295D02*
X180166667Y-110552057D01*
X180166667Y-110552057D02*
X180214286Y-110504438D01*
X180214286Y-110504438D02*
X180309524Y-110456819D01*
X177261905Y-112356819D02*
X177833333Y-112356819D01*
X177547619Y-113356819D02*
X177547619Y-112356819D01*
X178166667Y-113356819D02*
X178166667Y-112356819D01*
X178166667Y-112356819D02*
X178547619Y-112356819D01*
X178547619Y-112356819D02*
X178642857Y-112404438D01*
X178642857Y-112404438D02*
X178690476Y-112452057D01*
X178690476Y-112452057D02*
X178738095Y-112547295D01*
X178738095Y-112547295D02*
X178738095Y-112690152D01*
X178738095Y-112690152D02*
X178690476Y-112785390D01*
X178690476Y-112785390D02*
X178642857Y-112833009D01*
X178642857Y-112833009D02*
X178547619Y-112880628D01*
X178547619Y-112880628D02*
X178166667Y-112880628D01*
X179690476Y-113356819D02*
X179119048Y-113356819D01*
X179404762Y-113356819D02*
X179404762Y-112356819D01*
X179404762Y-112356819D02*
X179309524Y-112499676D01*
X179309524Y-112499676D02*
X179214286Y-112594914D01*
X179214286Y-112594914D02*
X179119048Y-112642533D01*
X180642857Y-113356819D02*
X180071429Y-113356819D01*
X180357143Y-113356819D02*
X180357143Y-112356819D01*
X180357143Y-112356819D02*
X180261905Y-112499676D01*
X180261905Y-112499676D02*
X180166667Y-112594914D01*
X180166667Y-112594914D02*
X180071429Y-112642533D01*
X147333333Y-81429580D02*
X147285714Y-81477200D01*
X147285714Y-81477200D02*
X147142857Y-81524819D01*
X147142857Y-81524819D02*
X147047619Y-81524819D01*
X147047619Y-81524819D02*
X146904762Y-81477200D01*
X146904762Y-81477200D02*
X146809524Y-81381961D01*
X146809524Y-81381961D02*
X146761905Y-81286723D01*
X146761905Y-81286723D02*
X146714286Y-81096247D01*
X146714286Y-81096247D02*
X146714286Y-80953390D01*
X146714286Y-80953390D02*
X146761905Y-80762914D01*
X146761905Y-80762914D02*
X146809524Y-80667676D01*
X146809524Y-80667676D02*
X146904762Y-80572438D01*
X146904762Y-80572438D02*
X147047619Y-80524819D01*
X147047619Y-80524819D02*
X147142857Y-80524819D01*
X147142857Y-80524819D02*
X147285714Y-80572438D01*
X147285714Y-80572438D02*
X147333333Y-80620057D01*
X147809524Y-81524819D02*
X148000000Y-81524819D01*
X148000000Y-81524819D02*
X148095238Y-81477200D01*
X148095238Y-81477200D02*
X148142857Y-81429580D01*
X148142857Y-81429580D02*
X148238095Y-81286723D01*
X148238095Y-81286723D02*
X148285714Y-81096247D01*
X148285714Y-81096247D02*
X148285714Y-80715295D01*
X148285714Y-80715295D02*
X148238095Y-80620057D01*
X148238095Y-80620057D02*
X148190476Y-80572438D01*
X148190476Y-80572438D02*
X148095238Y-80524819D01*
X148095238Y-80524819D02*
X147904762Y-80524819D01*
X147904762Y-80524819D02*
X147809524Y-80572438D01*
X147809524Y-80572438D02*
X147761905Y-80620057D01*
X147761905Y-80620057D02*
X147714286Y-80715295D01*
X147714286Y-80715295D02*
X147714286Y-80953390D01*
X147714286Y-80953390D02*
X147761905Y-81048628D01*
X147761905Y-81048628D02*
X147809524Y-81096247D01*
X147809524Y-81096247D02*
X147904762Y-81143866D01*
X147904762Y-81143866D02*
X148095238Y-81143866D01*
X148095238Y-81143866D02*
X148190476Y-81096247D01*
X148190476Y-81096247D02*
X148238095Y-81048628D01*
X148238095Y-81048628D02*
X148285714Y-80953390D01*
X175666666Y-72414819D02*
X175666666Y-73129104D01*
X175666666Y-73129104D02*
X175619047Y-73271961D01*
X175619047Y-73271961D02*
X175523809Y-73367200D01*
X175523809Y-73367200D02*
X175380952Y-73414819D01*
X175380952Y-73414819D02*
X175285714Y-73414819D01*
X176047619Y-72414819D02*
X176714285Y-72414819D01*
X176714285Y-72414819D02*
X176285714Y-73414819D01*
X88098095Y-78874819D02*
X88098095Y-79684342D01*
X88098095Y-79684342D02*
X88145714Y-79779580D01*
X88145714Y-79779580D02*
X88193333Y-79827200D01*
X88193333Y-79827200D02*
X88288571Y-79874819D01*
X88288571Y-79874819D02*
X88479047Y-79874819D01*
X88479047Y-79874819D02*
X88574285Y-79827200D01*
X88574285Y-79827200D02*
X88621904Y-79779580D01*
X88621904Y-79779580D02*
X88669523Y-79684342D01*
X88669523Y-79684342D02*
X88669523Y-78874819D01*
X89050476Y-78874819D02*
X89669523Y-78874819D01*
X89669523Y-78874819D02*
X89336190Y-79255771D01*
X89336190Y-79255771D02*
X89479047Y-79255771D01*
X89479047Y-79255771D02*
X89574285Y-79303390D01*
X89574285Y-79303390D02*
X89621904Y-79351009D01*
X89621904Y-79351009D02*
X89669523Y-79446247D01*
X89669523Y-79446247D02*
X89669523Y-79684342D01*
X89669523Y-79684342D02*
X89621904Y-79779580D01*
X89621904Y-79779580D02*
X89574285Y-79827200D01*
X89574285Y-79827200D02*
X89479047Y-79874819D01*
X89479047Y-79874819D02*
X89193333Y-79874819D01*
X89193333Y-79874819D02*
X89098095Y-79827200D01*
X89098095Y-79827200D02*
X89050476Y-79779580D01*
X87076666Y-86954819D02*
X87076666Y-87669104D01*
X87076666Y-87669104D02*
X87029047Y-87811961D01*
X87029047Y-87811961D02*
X86933809Y-87907200D01*
X86933809Y-87907200D02*
X86790952Y-87954819D01*
X86790952Y-87954819D02*
X86695714Y-87954819D01*
X88076666Y-87954819D02*
X87505238Y-87954819D01*
X87790952Y-87954819D02*
X87790952Y-86954819D01*
X87790952Y-86954819D02*
X87695714Y-87097676D01*
X87695714Y-87097676D02*
X87600476Y-87192914D01*
X87600476Y-87192914D02*
X87505238Y-87240533D01*
X160008333Y-51454819D02*
X159675000Y-50978628D01*
X159436905Y-51454819D02*
X159436905Y-50454819D01*
X159436905Y-50454819D02*
X159817857Y-50454819D01*
X159817857Y-50454819D02*
X159913095Y-50502438D01*
X159913095Y-50502438D02*
X159960714Y-50550057D01*
X159960714Y-50550057D02*
X160008333Y-50645295D01*
X160008333Y-50645295D02*
X160008333Y-50788152D01*
X160008333Y-50788152D02*
X159960714Y-50883390D01*
X159960714Y-50883390D02*
X159913095Y-50931009D01*
X159913095Y-50931009D02*
X159817857Y-50978628D01*
X159817857Y-50978628D02*
X159436905Y-50978628D01*
X160865476Y-50788152D02*
X160865476Y-51454819D01*
X160627381Y-50407200D02*
X160389286Y-51121485D01*
X160389286Y-51121485D02*
X161008333Y-51121485D01*
X101357142Y-111534819D02*
X101023809Y-111058628D01*
X100785714Y-111534819D02*
X100785714Y-110534819D01*
X100785714Y-110534819D02*
X101166666Y-110534819D01*
X101166666Y-110534819D02*
X101261904Y-110582438D01*
X101261904Y-110582438D02*
X101309523Y-110630057D01*
X101309523Y-110630057D02*
X101357142Y-110725295D01*
X101357142Y-110725295D02*
X101357142Y-110868152D01*
X101357142Y-110868152D02*
X101309523Y-110963390D01*
X101309523Y-110963390D02*
X101261904Y-111011009D01*
X101261904Y-111011009D02*
X101166666Y-111058628D01*
X101166666Y-111058628D02*
X100785714Y-111058628D01*
X102309523Y-111534819D02*
X101738095Y-111534819D01*
X102023809Y-111534819D02*
X102023809Y-110534819D01*
X102023809Y-110534819D02*
X101928571Y-110677676D01*
X101928571Y-110677676D02*
X101833333Y-110772914D01*
X101833333Y-110772914D02*
X101738095Y-110820533D01*
X103214285Y-110534819D02*
X102738095Y-110534819D01*
X102738095Y-110534819D02*
X102690476Y-111011009D01*
X102690476Y-111011009D02*
X102738095Y-110963390D01*
X102738095Y-110963390D02*
X102833333Y-110915771D01*
X102833333Y-110915771D02*
X103071428Y-110915771D01*
X103071428Y-110915771D02*
X103166666Y-110963390D01*
X103166666Y-110963390D02*
X103214285Y-111011009D01*
X103214285Y-111011009D02*
X103261904Y-111106247D01*
X103261904Y-111106247D02*
X103261904Y-111344342D01*
X103261904Y-111344342D02*
X103214285Y-111439580D01*
X103214285Y-111439580D02*
X103166666Y-111487200D01*
X103166666Y-111487200D02*
X103071428Y-111534819D01*
X103071428Y-111534819D02*
X102833333Y-111534819D01*
X102833333Y-111534819D02*
X102738095Y-111487200D01*
X102738095Y-111487200D02*
X102690476Y-111439580D01*
X166238095Y-109256819D02*
X166809523Y-109256819D01*
X166523809Y-110256819D02*
X166523809Y-109256819D01*
X167142857Y-110256819D02*
X167142857Y-109256819D01*
X167142857Y-109256819D02*
X167523809Y-109256819D01*
X167523809Y-109256819D02*
X167619047Y-109304438D01*
X167619047Y-109304438D02*
X167666666Y-109352057D01*
X167666666Y-109352057D02*
X167714285Y-109447295D01*
X167714285Y-109447295D02*
X167714285Y-109590152D01*
X167714285Y-109590152D02*
X167666666Y-109685390D01*
X167666666Y-109685390D02*
X167619047Y-109733009D01*
X167619047Y-109733009D02*
X167523809Y-109780628D01*
X167523809Y-109780628D02*
X167142857Y-109780628D01*
X168047619Y-109256819D02*
X168666666Y-109256819D01*
X168666666Y-109256819D02*
X168333333Y-109637771D01*
X168333333Y-109637771D02*
X168476190Y-109637771D01*
X168476190Y-109637771D02*
X168571428Y-109685390D01*
X168571428Y-109685390D02*
X168619047Y-109733009D01*
X168619047Y-109733009D02*
X168666666Y-109828247D01*
X168666666Y-109828247D02*
X168666666Y-110066342D01*
X168666666Y-110066342D02*
X168619047Y-110161580D01*
X168619047Y-110161580D02*
X168571428Y-110209200D01*
X168571428Y-110209200D02*
X168476190Y-110256819D01*
X168476190Y-110256819D02*
X168190476Y-110256819D01*
X168190476Y-110256819D02*
X168095238Y-110209200D01*
X168095238Y-110209200D02*
X168047619Y-110161580D01*
X101357142Y-108929580D02*
X101309523Y-108977200D01*
X101309523Y-108977200D02*
X101166666Y-109024819D01*
X101166666Y-109024819D02*
X101071428Y-109024819D01*
X101071428Y-109024819D02*
X100928571Y-108977200D01*
X100928571Y-108977200D02*
X100833333Y-108881961D01*
X100833333Y-108881961D02*
X100785714Y-108786723D01*
X100785714Y-108786723D02*
X100738095Y-108596247D01*
X100738095Y-108596247D02*
X100738095Y-108453390D01*
X100738095Y-108453390D02*
X100785714Y-108262914D01*
X100785714Y-108262914D02*
X100833333Y-108167676D01*
X100833333Y-108167676D02*
X100928571Y-108072438D01*
X100928571Y-108072438D02*
X101071428Y-108024819D01*
X101071428Y-108024819D02*
X101166666Y-108024819D01*
X101166666Y-108024819D02*
X101309523Y-108072438D01*
X101309523Y-108072438D02*
X101357142Y-108120057D01*
X102309523Y-109024819D02*
X101738095Y-109024819D01*
X102023809Y-109024819D02*
X102023809Y-108024819D01*
X102023809Y-108024819D02*
X101928571Y-108167676D01*
X101928571Y-108167676D02*
X101833333Y-108262914D01*
X101833333Y-108262914D02*
X101738095Y-108310533D01*
X102690476Y-108120057D02*
X102738095Y-108072438D01*
X102738095Y-108072438D02*
X102833333Y-108024819D01*
X102833333Y-108024819D02*
X103071428Y-108024819D01*
X103071428Y-108024819D02*
X103166666Y-108072438D01*
X103166666Y-108072438D02*
X103214285Y-108120057D01*
X103214285Y-108120057D02*
X103261904Y-108215295D01*
X103261904Y-108215295D02*
X103261904Y-108310533D01*
X103261904Y-108310533D02*
X103214285Y-108453390D01*
X103214285Y-108453390D02*
X102642857Y-109024819D01*
X102642857Y-109024819D02*
X103261904Y-109024819D01*
X119761905Y-60456819D02*
X120333333Y-60456819D01*
X120047619Y-61456819D02*
X120047619Y-60456819D01*
X120666667Y-61456819D02*
X120666667Y-60456819D01*
X120666667Y-60456819D02*
X121047619Y-60456819D01*
X121047619Y-60456819D02*
X121142857Y-60504438D01*
X121142857Y-60504438D02*
X121190476Y-60552057D01*
X121190476Y-60552057D02*
X121238095Y-60647295D01*
X121238095Y-60647295D02*
X121238095Y-60790152D01*
X121238095Y-60790152D02*
X121190476Y-60885390D01*
X121190476Y-60885390D02*
X121142857Y-60933009D01*
X121142857Y-60933009D02*
X121047619Y-60980628D01*
X121047619Y-60980628D02*
X120666667Y-60980628D01*
X122190476Y-61456819D02*
X121619048Y-61456819D01*
X121904762Y-61456819D02*
X121904762Y-60456819D01*
X121904762Y-60456819D02*
X121809524Y-60599676D01*
X121809524Y-60599676D02*
X121714286Y-60694914D01*
X121714286Y-60694914D02*
X121619048Y-60742533D01*
X122523810Y-60456819D02*
X123142857Y-60456819D01*
X123142857Y-60456819D02*
X122809524Y-60837771D01*
X122809524Y-60837771D02*
X122952381Y-60837771D01*
X122952381Y-60837771D02*
X123047619Y-60885390D01*
X123047619Y-60885390D02*
X123095238Y-60933009D01*
X123095238Y-60933009D02*
X123142857Y-61028247D01*
X123142857Y-61028247D02*
X123142857Y-61266342D01*
X123142857Y-61266342D02*
X123095238Y-61361580D01*
X123095238Y-61361580D02*
X123047619Y-61409200D01*
X123047619Y-61409200D02*
X122952381Y-61456819D01*
X122952381Y-61456819D02*
X122666667Y-61456819D01*
X122666667Y-61456819D02*
X122571429Y-61409200D01*
X122571429Y-61409200D02*
X122523810Y-61361580D01*
X89816667Y-61007200D02*
X89959524Y-61054819D01*
X89959524Y-61054819D02*
X90197619Y-61054819D01*
X90197619Y-61054819D02*
X90292857Y-61007200D01*
X90292857Y-61007200D02*
X90340476Y-60959580D01*
X90340476Y-60959580D02*
X90388095Y-60864342D01*
X90388095Y-60864342D02*
X90388095Y-60769104D01*
X90388095Y-60769104D02*
X90340476Y-60673866D01*
X90340476Y-60673866D02*
X90292857Y-60626247D01*
X90292857Y-60626247D02*
X90197619Y-60578628D01*
X90197619Y-60578628D02*
X90007143Y-60531009D01*
X90007143Y-60531009D02*
X89911905Y-60483390D01*
X89911905Y-60483390D02*
X89864286Y-60435771D01*
X89864286Y-60435771D02*
X89816667Y-60340533D01*
X89816667Y-60340533D02*
X89816667Y-60245295D01*
X89816667Y-60245295D02*
X89864286Y-60150057D01*
X89864286Y-60150057D02*
X89911905Y-60102438D01*
X89911905Y-60102438D02*
X90007143Y-60054819D01*
X90007143Y-60054819D02*
X90245238Y-60054819D01*
X90245238Y-60054819D02*
X90388095Y-60102438D01*
X90721429Y-60054819D02*
X90959524Y-61054819D01*
X90959524Y-61054819D02*
X91150000Y-60340533D01*
X91150000Y-60340533D02*
X91340476Y-61054819D01*
X91340476Y-61054819D02*
X91578572Y-60054819D01*
X92483333Y-61054819D02*
X91911905Y-61054819D01*
X92197619Y-61054819D02*
X92197619Y-60054819D01*
X92197619Y-60054819D02*
X92102381Y-60197676D01*
X92102381Y-60197676D02*
X92007143Y-60292914D01*
X92007143Y-60292914D02*
X91911905Y-60340533D01*
X138819047Y-106731009D02*
X138961904Y-106778628D01*
X138961904Y-106778628D02*
X139009523Y-106826247D01*
X139009523Y-106826247D02*
X139057142Y-106921485D01*
X139057142Y-106921485D02*
X139057142Y-107064342D01*
X139057142Y-107064342D02*
X139009523Y-107159580D01*
X139009523Y-107159580D02*
X138961904Y-107207200D01*
X138961904Y-107207200D02*
X138866666Y-107254819D01*
X138866666Y-107254819D02*
X138485714Y-107254819D01*
X138485714Y-107254819D02*
X138485714Y-106254819D01*
X138485714Y-106254819D02*
X138819047Y-106254819D01*
X138819047Y-106254819D02*
X138914285Y-106302438D01*
X138914285Y-106302438D02*
X138961904Y-106350057D01*
X138961904Y-106350057D02*
X139009523Y-106445295D01*
X139009523Y-106445295D02*
X139009523Y-106540533D01*
X139009523Y-106540533D02*
X138961904Y-106635771D01*
X138961904Y-106635771D02*
X138914285Y-106683390D01*
X138914285Y-106683390D02*
X138819047Y-106731009D01*
X138819047Y-106731009D02*
X138485714Y-106731009D01*
X139390476Y-106254819D02*
X140057142Y-106254819D01*
X140057142Y-106254819D02*
X139390476Y-107254819D01*
X139390476Y-107254819D02*
X140057142Y-107254819D01*
X140961904Y-107254819D02*
X140390476Y-107254819D01*
X140676190Y-107254819D02*
X140676190Y-106254819D01*
X140676190Y-106254819D02*
X140580952Y-106397676D01*
X140580952Y-106397676D02*
X140485714Y-106492914D01*
X140485714Y-106492914D02*
X140390476Y-106540533D01*
X135509048Y-111533866D02*
X136270953Y-111533866D01*
X135890000Y-111914819D02*
X135890000Y-111152914D01*
X132563333Y-75589580D02*
X132515714Y-75637200D01*
X132515714Y-75637200D02*
X132372857Y-75684819D01*
X132372857Y-75684819D02*
X132277619Y-75684819D01*
X132277619Y-75684819D02*
X132134762Y-75637200D01*
X132134762Y-75637200D02*
X132039524Y-75541961D01*
X132039524Y-75541961D02*
X131991905Y-75446723D01*
X131991905Y-75446723D02*
X131944286Y-75256247D01*
X131944286Y-75256247D02*
X131944286Y-75113390D01*
X131944286Y-75113390D02*
X131991905Y-74922914D01*
X131991905Y-74922914D02*
X132039524Y-74827676D01*
X132039524Y-74827676D02*
X132134762Y-74732438D01*
X132134762Y-74732438D02*
X132277619Y-74684819D01*
X132277619Y-74684819D02*
X132372857Y-74684819D01*
X132372857Y-74684819D02*
X132515714Y-74732438D01*
X132515714Y-74732438D02*
X132563333Y-74780057D01*
X133134762Y-75113390D02*
X133039524Y-75065771D01*
X133039524Y-75065771D02*
X132991905Y-75018152D01*
X132991905Y-75018152D02*
X132944286Y-74922914D01*
X132944286Y-74922914D02*
X132944286Y-74875295D01*
X132944286Y-74875295D02*
X132991905Y-74780057D01*
X132991905Y-74780057D02*
X133039524Y-74732438D01*
X133039524Y-74732438D02*
X133134762Y-74684819D01*
X133134762Y-74684819D02*
X133325238Y-74684819D01*
X133325238Y-74684819D02*
X133420476Y-74732438D01*
X133420476Y-74732438D02*
X133468095Y-74780057D01*
X133468095Y-74780057D02*
X133515714Y-74875295D01*
X133515714Y-74875295D02*
X133515714Y-74922914D01*
X133515714Y-74922914D02*
X133468095Y-75018152D01*
X133468095Y-75018152D02*
X133420476Y-75065771D01*
X133420476Y-75065771D02*
X133325238Y-75113390D01*
X133325238Y-75113390D02*
X133134762Y-75113390D01*
X133134762Y-75113390D02*
X133039524Y-75161009D01*
X133039524Y-75161009D02*
X132991905Y-75208628D01*
X132991905Y-75208628D02*
X132944286Y-75303866D01*
X132944286Y-75303866D02*
X132944286Y-75494342D01*
X132944286Y-75494342D02*
X132991905Y-75589580D01*
X132991905Y-75589580D02*
X133039524Y-75637200D01*
X133039524Y-75637200D02*
X133134762Y-75684819D01*
X133134762Y-75684819D02*
X133325238Y-75684819D01*
X133325238Y-75684819D02*
X133420476Y-75637200D01*
X133420476Y-75637200D02*
X133468095Y-75589580D01*
X133468095Y-75589580D02*
X133515714Y-75494342D01*
X133515714Y-75494342D02*
X133515714Y-75303866D01*
X133515714Y-75303866D02*
X133468095Y-75208628D01*
X133468095Y-75208628D02*
X133420476Y-75161009D01*
X133420476Y-75161009D02*
X133325238Y-75113390D01*
X121704166Y-45051009D02*
X121370833Y-45051009D01*
X121370833Y-45574819D02*
X121370833Y-44574819D01*
X121370833Y-44574819D02*
X121847023Y-44574819D01*
X122751785Y-45574819D02*
X122180357Y-45574819D01*
X122466071Y-45574819D02*
X122466071Y-44574819D01*
X122466071Y-44574819D02*
X122370833Y-44717676D01*
X122370833Y-44717676D02*
X122275595Y-44812914D01*
X122275595Y-44812914D02*
X122180357Y-44860533D01*
X121549405Y-116524819D02*
X121549405Y-115524819D01*
X121549405Y-115524819D02*
X121787500Y-115524819D01*
X121787500Y-115524819D02*
X121930357Y-115572438D01*
X121930357Y-115572438D02*
X122025595Y-115667676D01*
X122025595Y-115667676D02*
X122073214Y-115762914D01*
X122073214Y-115762914D02*
X122120833Y-115953390D01*
X122120833Y-115953390D02*
X122120833Y-116096247D01*
X122120833Y-116096247D02*
X122073214Y-116286723D01*
X122073214Y-116286723D02*
X122025595Y-116381961D01*
X122025595Y-116381961D02*
X121930357Y-116477200D01*
X121930357Y-116477200D02*
X121787500Y-116524819D01*
X121787500Y-116524819D02*
X121549405Y-116524819D01*
X123025595Y-115524819D02*
X122549405Y-115524819D01*
X122549405Y-115524819D02*
X122501786Y-116001009D01*
X122501786Y-116001009D02*
X122549405Y-115953390D01*
X122549405Y-115953390D02*
X122644643Y-115905771D01*
X122644643Y-115905771D02*
X122882738Y-115905771D01*
X122882738Y-115905771D02*
X122977976Y-115953390D01*
X122977976Y-115953390D02*
X123025595Y-116001009D01*
X123025595Y-116001009D02*
X123073214Y-116096247D01*
X123073214Y-116096247D02*
X123073214Y-116334342D01*
X123073214Y-116334342D02*
X123025595Y-116429580D01*
X123025595Y-116429580D02*
X122977976Y-116477200D01*
X122977976Y-116477200D02*
X122882738Y-116524819D01*
X122882738Y-116524819D02*
X122644643Y-116524819D01*
X122644643Y-116524819D02*
X122549405Y-116477200D01*
X122549405Y-116477200D02*
X122501786Y-116429580D01*
X158861905Y-116726819D02*
X159433333Y-116726819D01*
X159147619Y-117726819D02*
X159147619Y-116726819D01*
X159766667Y-117726819D02*
X159766667Y-116726819D01*
X159766667Y-116726819D02*
X160147619Y-116726819D01*
X160147619Y-116726819D02*
X160242857Y-116774438D01*
X160242857Y-116774438D02*
X160290476Y-116822057D01*
X160290476Y-116822057D02*
X160338095Y-116917295D01*
X160338095Y-116917295D02*
X160338095Y-117060152D01*
X160338095Y-117060152D02*
X160290476Y-117155390D01*
X160290476Y-117155390D02*
X160242857Y-117203009D01*
X160242857Y-117203009D02*
X160147619Y-117250628D01*
X160147619Y-117250628D02*
X159766667Y-117250628D01*
X161290476Y-117726819D02*
X160719048Y-117726819D01*
X161004762Y-117726819D02*
X161004762Y-116726819D01*
X161004762Y-116726819D02*
X160909524Y-116869676D01*
X160909524Y-116869676D02*
X160814286Y-116964914D01*
X160814286Y-116964914D02*
X160719048Y-117012533D01*
X162195238Y-116726819D02*
X161719048Y-116726819D01*
X161719048Y-116726819D02*
X161671429Y-117203009D01*
X161671429Y-117203009D02*
X161719048Y-117155390D01*
X161719048Y-117155390D02*
X161814286Y-117107771D01*
X161814286Y-117107771D02*
X162052381Y-117107771D01*
X162052381Y-117107771D02*
X162147619Y-117155390D01*
X162147619Y-117155390D02*
X162195238Y-117203009D01*
X162195238Y-117203009D02*
X162242857Y-117298247D01*
X162242857Y-117298247D02*
X162242857Y-117536342D01*
X162242857Y-117536342D02*
X162195238Y-117631580D01*
X162195238Y-117631580D02*
X162147619Y-117679200D01*
X162147619Y-117679200D02*
X162052381Y-117726819D01*
X162052381Y-117726819D02*
X161814286Y-117726819D01*
X161814286Y-117726819D02*
X161719048Y-117679200D01*
X161719048Y-117679200D02*
X161671429Y-117631580D01*
X119032142Y-115534819D02*
X118698809Y-115058628D01*
X118460714Y-115534819D02*
X118460714Y-114534819D01*
X118460714Y-114534819D02*
X118841666Y-114534819D01*
X118841666Y-114534819D02*
X118936904Y-114582438D01*
X118936904Y-114582438D02*
X118984523Y-114630057D01*
X118984523Y-114630057D02*
X119032142Y-114725295D01*
X119032142Y-114725295D02*
X119032142Y-114868152D01*
X119032142Y-114868152D02*
X118984523Y-114963390D01*
X118984523Y-114963390D02*
X118936904Y-115011009D01*
X118936904Y-115011009D02*
X118841666Y-115058628D01*
X118841666Y-115058628D02*
X118460714Y-115058628D01*
X119413095Y-114630057D02*
X119460714Y-114582438D01*
X119460714Y-114582438D02*
X119555952Y-114534819D01*
X119555952Y-114534819D02*
X119794047Y-114534819D01*
X119794047Y-114534819D02*
X119889285Y-114582438D01*
X119889285Y-114582438D02*
X119936904Y-114630057D01*
X119936904Y-114630057D02*
X119984523Y-114725295D01*
X119984523Y-114725295D02*
X119984523Y-114820533D01*
X119984523Y-114820533D02*
X119936904Y-114963390D01*
X119936904Y-114963390D02*
X119365476Y-115534819D01*
X119365476Y-115534819D02*
X119984523Y-115534819D01*
X120603571Y-114534819D02*
X120698809Y-114534819D01*
X120698809Y-114534819D02*
X120794047Y-114582438D01*
X120794047Y-114582438D02*
X120841666Y-114630057D01*
X120841666Y-114630057D02*
X120889285Y-114725295D01*
X120889285Y-114725295D02*
X120936904Y-114915771D01*
X120936904Y-114915771D02*
X120936904Y-115153866D01*
X120936904Y-115153866D02*
X120889285Y-115344342D01*
X120889285Y-115344342D02*
X120841666Y-115439580D01*
X120841666Y-115439580D02*
X120794047Y-115487200D01*
X120794047Y-115487200D02*
X120698809Y-115534819D01*
X120698809Y-115534819D02*
X120603571Y-115534819D01*
X120603571Y-115534819D02*
X120508333Y-115487200D01*
X120508333Y-115487200D02*
X120460714Y-115439580D01*
X120460714Y-115439580D02*
X120413095Y-115344342D01*
X120413095Y-115344342D02*
X120365476Y-115153866D01*
X120365476Y-115153866D02*
X120365476Y-114915771D01*
X120365476Y-114915771D02*
X120413095Y-114725295D01*
X120413095Y-114725295D02*
X120460714Y-114630057D01*
X120460714Y-114630057D02*
X120508333Y-114582438D01*
X120508333Y-114582438D02*
X120603571Y-114534819D01*
X99508333Y-49514819D02*
X99175000Y-49038628D01*
X98936905Y-49514819D02*
X98936905Y-48514819D01*
X98936905Y-48514819D02*
X99317857Y-48514819D01*
X99317857Y-48514819D02*
X99413095Y-48562438D01*
X99413095Y-48562438D02*
X99460714Y-48610057D01*
X99460714Y-48610057D02*
X99508333Y-48705295D01*
X99508333Y-48705295D02*
X99508333Y-48848152D01*
X99508333Y-48848152D02*
X99460714Y-48943390D01*
X99460714Y-48943390D02*
X99413095Y-48991009D01*
X99413095Y-48991009D02*
X99317857Y-49038628D01*
X99317857Y-49038628D02*
X98936905Y-49038628D01*
X100460714Y-49514819D02*
X99889286Y-49514819D01*
X100175000Y-49514819D02*
X100175000Y-48514819D01*
X100175000Y-48514819D02*
X100079762Y-48657676D01*
X100079762Y-48657676D02*
X99984524Y-48752914D01*
X99984524Y-48752914D02*
X99889286Y-48800533D01*
X140333333Y-46929580D02*
X140285714Y-46977200D01*
X140285714Y-46977200D02*
X140142857Y-47024819D01*
X140142857Y-47024819D02*
X140047619Y-47024819D01*
X140047619Y-47024819D02*
X139904762Y-46977200D01*
X139904762Y-46977200D02*
X139809524Y-46881961D01*
X139809524Y-46881961D02*
X139761905Y-46786723D01*
X139761905Y-46786723D02*
X139714286Y-46596247D01*
X139714286Y-46596247D02*
X139714286Y-46453390D01*
X139714286Y-46453390D02*
X139761905Y-46262914D01*
X139761905Y-46262914D02*
X139809524Y-46167676D01*
X139809524Y-46167676D02*
X139904762Y-46072438D01*
X139904762Y-46072438D02*
X140047619Y-46024819D01*
X140047619Y-46024819D02*
X140142857Y-46024819D01*
X140142857Y-46024819D02*
X140285714Y-46072438D01*
X140285714Y-46072438D02*
X140333333Y-46120057D01*
X140666667Y-46024819D02*
X141285714Y-46024819D01*
X141285714Y-46024819D02*
X140952381Y-46405771D01*
X140952381Y-46405771D02*
X141095238Y-46405771D01*
X141095238Y-46405771D02*
X141190476Y-46453390D01*
X141190476Y-46453390D02*
X141238095Y-46501009D01*
X141238095Y-46501009D02*
X141285714Y-46596247D01*
X141285714Y-46596247D02*
X141285714Y-46834342D01*
X141285714Y-46834342D02*
X141238095Y-46929580D01*
X141238095Y-46929580D02*
X141190476Y-46977200D01*
X141190476Y-46977200D02*
X141095238Y-47024819D01*
X141095238Y-47024819D02*
X140809524Y-47024819D01*
X140809524Y-47024819D02*
X140714286Y-46977200D01*
X140714286Y-46977200D02*
X140666667Y-46929580D01*
X153772142Y-86464819D02*
X153438809Y-85988628D01*
X153200714Y-86464819D02*
X153200714Y-85464819D01*
X153200714Y-85464819D02*
X153581666Y-85464819D01*
X153581666Y-85464819D02*
X153676904Y-85512438D01*
X153676904Y-85512438D02*
X153724523Y-85560057D01*
X153724523Y-85560057D02*
X153772142Y-85655295D01*
X153772142Y-85655295D02*
X153772142Y-85798152D01*
X153772142Y-85798152D02*
X153724523Y-85893390D01*
X153724523Y-85893390D02*
X153676904Y-85941009D01*
X153676904Y-85941009D02*
X153581666Y-85988628D01*
X153581666Y-85988628D02*
X153200714Y-85988628D01*
X154724523Y-86464819D02*
X154153095Y-86464819D01*
X154438809Y-86464819D02*
X154438809Y-85464819D01*
X154438809Y-85464819D02*
X154343571Y-85607676D01*
X154343571Y-85607676D02*
X154248333Y-85702914D01*
X154248333Y-85702914D02*
X154153095Y-85750533D01*
X155343571Y-85464819D02*
X155438809Y-85464819D01*
X155438809Y-85464819D02*
X155534047Y-85512438D01*
X155534047Y-85512438D02*
X155581666Y-85560057D01*
X155581666Y-85560057D02*
X155629285Y-85655295D01*
X155629285Y-85655295D02*
X155676904Y-85845771D01*
X155676904Y-85845771D02*
X155676904Y-86083866D01*
X155676904Y-86083866D02*
X155629285Y-86274342D01*
X155629285Y-86274342D02*
X155581666Y-86369580D01*
X155581666Y-86369580D02*
X155534047Y-86417200D01*
X155534047Y-86417200D02*
X155438809Y-86464819D01*
X155438809Y-86464819D02*
X155343571Y-86464819D01*
X155343571Y-86464819D02*
X155248333Y-86417200D01*
X155248333Y-86417200D02*
X155200714Y-86369580D01*
X155200714Y-86369580D02*
X155153095Y-86274342D01*
X155153095Y-86274342D02*
X155105476Y-86083866D01*
X155105476Y-86083866D02*
X155105476Y-85845771D01*
X155105476Y-85845771D02*
X155153095Y-85655295D01*
X155153095Y-85655295D02*
X155200714Y-85560057D01*
X155200714Y-85560057D02*
X155248333Y-85512438D01*
X155248333Y-85512438D02*
X155343571Y-85464819D01*
X106857142Y-112024819D02*
X106523809Y-111548628D01*
X106285714Y-112024819D02*
X106285714Y-111024819D01*
X106285714Y-111024819D02*
X106666666Y-111024819D01*
X106666666Y-111024819D02*
X106761904Y-111072438D01*
X106761904Y-111072438D02*
X106809523Y-111120057D01*
X106809523Y-111120057D02*
X106857142Y-111215295D01*
X106857142Y-111215295D02*
X106857142Y-111358152D01*
X106857142Y-111358152D02*
X106809523Y-111453390D01*
X106809523Y-111453390D02*
X106761904Y-111501009D01*
X106761904Y-111501009D02*
X106666666Y-111548628D01*
X106666666Y-111548628D02*
X106285714Y-111548628D01*
X107809523Y-112024819D02*
X107238095Y-112024819D01*
X107523809Y-112024819D02*
X107523809Y-111024819D01*
X107523809Y-111024819D02*
X107428571Y-111167676D01*
X107428571Y-111167676D02*
X107333333Y-111262914D01*
X107333333Y-111262914D02*
X107238095Y-111310533D01*
X108142857Y-111024819D02*
X108809523Y-111024819D01*
X108809523Y-111024819D02*
X108380952Y-112024819D01*
X119032142Y-113024819D02*
X118698809Y-112548628D01*
X118460714Y-113024819D02*
X118460714Y-112024819D01*
X118460714Y-112024819D02*
X118841666Y-112024819D01*
X118841666Y-112024819D02*
X118936904Y-112072438D01*
X118936904Y-112072438D02*
X118984523Y-112120057D01*
X118984523Y-112120057D02*
X119032142Y-112215295D01*
X119032142Y-112215295D02*
X119032142Y-112358152D01*
X119032142Y-112358152D02*
X118984523Y-112453390D01*
X118984523Y-112453390D02*
X118936904Y-112501009D01*
X118936904Y-112501009D02*
X118841666Y-112548628D01*
X118841666Y-112548628D02*
X118460714Y-112548628D01*
X119984523Y-113024819D02*
X119413095Y-113024819D01*
X119698809Y-113024819D02*
X119698809Y-112024819D01*
X119698809Y-112024819D02*
X119603571Y-112167676D01*
X119603571Y-112167676D02*
X119508333Y-112262914D01*
X119508333Y-112262914D02*
X119413095Y-112310533D01*
X120460714Y-113024819D02*
X120651190Y-113024819D01*
X120651190Y-113024819D02*
X120746428Y-112977200D01*
X120746428Y-112977200D02*
X120794047Y-112929580D01*
X120794047Y-112929580D02*
X120889285Y-112786723D01*
X120889285Y-112786723D02*
X120936904Y-112596247D01*
X120936904Y-112596247D02*
X120936904Y-112215295D01*
X120936904Y-112215295D02*
X120889285Y-112120057D01*
X120889285Y-112120057D02*
X120841666Y-112072438D01*
X120841666Y-112072438D02*
X120746428Y-112024819D01*
X120746428Y-112024819D02*
X120555952Y-112024819D01*
X120555952Y-112024819D02*
X120460714Y-112072438D01*
X120460714Y-112072438D02*
X120413095Y-112120057D01*
X120413095Y-112120057D02*
X120365476Y-112215295D01*
X120365476Y-112215295D02*
X120365476Y-112453390D01*
X120365476Y-112453390D02*
X120413095Y-112548628D01*
X120413095Y-112548628D02*
X120460714Y-112596247D01*
X120460714Y-112596247D02*
X120555952Y-112643866D01*
X120555952Y-112643866D02*
X120746428Y-112643866D01*
X120746428Y-112643866D02*
X120841666Y-112596247D01*
X120841666Y-112596247D02*
X120889285Y-112548628D01*
X120889285Y-112548628D02*
X120936904Y-112453390D01*
X169738095Y-104356819D02*
X170309523Y-104356819D01*
X170023809Y-105356819D02*
X170023809Y-104356819D01*
X170642857Y-105356819D02*
X170642857Y-104356819D01*
X170642857Y-104356819D02*
X171023809Y-104356819D01*
X171023809Y-104356819D02*
X171119047Y-104404438D01*
X171119047Y-104404438D02*
X171166666Y-104452057D01*
X171166666Y-104452057D02*
X171214285Y-104547295D01*
X171214285Y-104547295D02*
X171214285Y-104690152D01*
X171214285Y-104690152D02*
X171166666Y-104785390D01*
X171166666Y-104785390D02*
X171119047Y-104833009D01*
X171119047Y-104833009D02*
X171023809Y-104880628D01*
X171023809Y-104880628D02*
X170642857Y-104880628D01*
X172071428Y-104356819D02*
X171880952Y-104356819D01*
X171880952Y-104356819D02*
X171785714Y-104404438D01*
X171785714Y-104404438D02*
X171738095Y-104452057D01*
X171738095Y-104452057D02*
X171642857Y-104594914D01*
X171642857Y-104594914D02*
X171595238Y-104785390D01*
X171595238Y-104785390D02*
X171595238Y-105166342D01*
X171595238Y-105166342D02*
X171642857Y-105261580D01*
X171642857Y-105261580D02*
X171690476Y-105309200D01*
X171690476Y-105309200D02*
X171785714Y-105356819D01*
X171785714Y-105356819D02*
X171976190Y-105356819D01*
X171976190Y-105356819D02*
X172071428Y-105309200D01*
X172071428Y-105309200D02*
X172119047Y-105261580D01*
X172119047Y-105261580D02*
X172166666Y-105166342D01*
X172166666Y-105166342D02*
X172166666Y-104928247D01*
X172166666Y-104928247D02*
X172119047Y-104833009D01*
X172119047Y-104833009D02*
X172071428Y-104785390D01*
X172071428Y-104785390D02*
X171976190Y-104737771D01*
X171976190Y-104737771D02*
X171785714Y-104737771D01*
X171785714Y-104737771D02*
X171690476Y-104785390D01*
X171690476Y-104785390D02*
X171642857Y-104833009D01*
X171642857Y-104833009D02*
X171595238Y-104928247D01*
X136108333Y-45429580D02*
X136060714Y-45477200D01*
X136060714Y-45477200D02*
X135917857Y-45524819D01*
X135917857Y-45524819D02*
X135822619Y-45524819D01*
X135822619Y-45524819D02*
X135679762Y-45477200D01*
X135679762Y-45477200D02*
X135584524Y-45381961D01*
X135584524Y-45381961D02*
X135536905Y-45286723D01*
X135536905Y-45286723D02*
X135489286Y-45096247D01*
X135489286Y-45096247D02*
X135489286Y-44953390D01*
X135489286Y-44953390D02*
X135536905Y-44762914D01*
X135536905Y-44762914D02*
X135584524Y-44667676D01*
X135584524Y-44667676D02*
X135679762Y-44572438D01*
X135679762Y-44572438D02*
X135822619Y-44524819D01*
X135822619Y-44524819D02*
X135917857Y-44524819D01*
X135917857Y-44524819D02*
X136060714Y-44572438D01*
X136060714Y-44572438D02*
X136108333Y-44620057D01*
X137060714Y-45524819D02*
X136489286Y-45524819D01*
X136775000Y-45524819D02*
X136775000Y-44524819D01*
X136775000Y-44524819D02*
X136679762Y-44667676D01*
X136679762Y-44667676D02*
X136584524Y-44762914D01*
X136584524Y-44762914D02*
X136489286Y-44810533D01*
X166032142Y-92034819D02*
X165698809Y-91558628D01*
X165460714Y-92034819D02*
X165460714Y-91034819D01*
X165460714Y-91034819D02*
X165841666Y-91034819D01*
X165841666Y-91034819D02*
X165936904Y-91082438D01*
X165936904Y-91082438D02*
X165984523Y-91130057D01*
X165984523Y-91130057D02*
X166032142Y-91225295D01*
X166032142Y-91225295D02*
X166032142Y-91368152D01*
X166032142Y-91368152D02*
X165984523Y-91463390D01*
X165984523Y-91463390D02*
X165936904Y-91511009D01*
X165936904Y-91511009D02*
X165841666Y-91558628D01*
X165841666Y-91558628D02*
X165460714Y-91558628D01*
X166984523Y-92034819D02*
X166413095Y-92034819D01*
X166698809Y-92034819D02*
X166698809Y-91034819D01*
X166698809Y-91034819D02*
X166603571Y-91177676D01*
X166603571Y-91177676D02*
X166508333Y-91272914D01*
X166508333Y-91272914D02*
X166413095Y-91320533D01*
X167841666Y-91368152D02*
X167841666Y-92034819D01*
X167603571Y-90987200D02*
X167365476Y-91701485D01*
X167365476Y-91701485D02*
X167984523Y-91701485D01*
X99508333Y-52024819D02*
X99175000Y-51548628D01*
X98936905Y-52024819D02*
X98936905Y-51024819D01*
X98936905Y-51024819D02*
X99317857Y-51024819D01*
X99317857Y-51024819D02*
X99413095Y-51072438D01*
X99413095Y-51072438D02*
X99460714Y-51120057D01*
X99460714Y-51120057D02*
X99508333Y-51215295D01*
X99508333Y-51215295D02*
X99508333Y-51358152D01*
X99508333Y-51358152D02*
X99460714Y-51453390D01*
X99460714Y-51453390D02*
X99413095Y-51501009D01*
X99413095Y-51501009D02*
X99317857Y-51548628D01*
X99317857Y-51548628D02*
X98936905Y-51548628D01*
X99889286Y-51120057D02*
X99936905Y-51072438D01*
X99936905Y-51072438D02*
X100032143Y-51024819D01*
X100032143Y-51024819D02*
X100270238Y-51024819D01*
X100270238Y-51024819D02*
X100365476Y-51072438D01*
X100365476Y-51072438D02*
X100413095Y-51120057D01*
X100413095Y-51120057D02*
X100460714Y-51215295D01*
X100460714Y-51215295D02*
X100460714Y-51310533D01*
X100460714Y-51310533D02*
X100413095Y-51453390D01*
X100413095Y-51453390D02*
X99841667Y-52024819D01*
X99841667Y-52024819D02*
X100460714Y-52024819D01*
X162058333Y-63429580D02*
X162010714Y-63477200D01*
X162010714Y-63477200D02*
X161867857Y-63524819D01*
X161867857Y-63524819D02*
X161772619Y-63524819D01*
X161772619Y-63524819D02*
X161629762Y-63477200D01*
X161629762Y-63477200D02*
X161534524Y-63381961D01*
X161534524Y-63381961D02*
X161486905Y-63286723D01*
X161486905Y-63286723D02*
X161439286Y-63096247D01*
X161439286Y-63096247D02*
X161439286Y-62953390D01*
X161439286Y-62953390D02*
X161486905Y-62762914D01*
X161486905Y-62762914D02*
X161534524Y-62667676D01*
X161534524Y-62667676D02*
X161629762Y-62572438D01*
X161629762Y-62572438D02*
X161772619Y-62524819D01*
X161772619Y-62524819D02*
X161867857Y-62524819D01*
X161867857Y-62524819D02*
X162010714Y-62572438D01*
X162010714Y-62572438D02*
X162058333Y-62620057D01*
X162963095Y-62524819D02*
X162486905Y-62524819D01*
X162486905Y-62524819D02*
X162439286Y-63001009D01*
X162439286Y-63001009D02*
X162486905Y-62953390D01*
X162486905Y-62953390D02*
X162582143Y-62905771D01*
X162582143Y-62905771D02*
X162820238Y-62905771D01*
X162820238Y-62905771D02*
X162915476Y-62953390D01*
X162915476Y-62953390D02*
X162963095Y-63001009D01*
X162963095Y-63001009D02*
X163010714Y-63096247D01*
X163010714Y-63096247D02*
X163010714Y-63334342D01*
X163010714Y-63334342D02*
X162963095Y-63429580D01*
X162963095Y-63429580D02*
X162915476Y-63477200D01*
X162915476Y-63477200D02*
X162820238Y-63524819D01*
X162820238Y-63524819D02*
X162582143Y-63524819D01*
X162582143Y-63524819D02*
X162486905Y-63477200D01*
X162486905Y-63477200D02*
X162439286Y-63429580D01*
X172857142Y-89429580D02*
X172809523Y-89477200D01*
X172809523Y-89477200D02*
X172666666Y-89524819D01*
X172666666Y-89524819D02*
X172571428Y-89524819D01*
X172571428Y-89524819D02*
X172428571Y-89477200D01*
X172428571Y-89477200D02*
X172333333Y-89381961D01*
X172333333Y-89381961D02*
X172285714Y-89286723D01*
X172285714Y-89286723D02*
X172238095Y-89096247D01*
X172238095Y-89096247D02*
X172238095Y-88953390D01*
X172238095Y-88953390D02*
X172285714Y-88762914D01*
X172285714Y-88762914D02*
X172333333Y-88667676D01*
X172333333Y-88667676D02*
X172428571Y-88572438D01*
X172428571Y-88572438D02*
X172571428Y-88524819D01*
X172571428Y-88524819D02*
X172666666Y-88524819D01*
X172666666Y-88524819D02*
X172809523Y-88572438D01*
X172809523Y-88572438D02*
X172857142Y-88620057D01*
X173809523Y-89524819D02*
X173238095Y-89524819D01*
X173523809Y-89524819D02*
X173523809Y-88524819D01*
X173523809Y-88524819D02*
X173428571Y-88667676D01*
X173428571Y-88667676D02*
X173333333Y-88762914D01*
X173333333Y-88762914D02*
X173238095Y-88810533D01*
X174428571Y-88524819D02*
X174523809Y-88524819D01*
X174523809Y-88524819D02*
X174619047Y-88572438D01*
X174619047Y-88572438D02*
X174666666Y-88620057D01*
X174666666Y-88620057D02*
X174714285Y-88715295D01*
X174714285Y-88715295D02*
X174761904Y-88905771D01*
X174761904Y-88905771D02*
X174761904Y-89143866D01*
X174761904Y-89143866D02*
X174714285Y-89334342D01*
X174714285Y-89334342D02*
X174666666Y-89429580D01*
X174666666Y-89429580D02*
X174619047Y-89477200D01*
X174619047Y-89477200D02*
X174523809Y-89524819D01*
X174523809Y-89524819D02*
X174428571Y-89524819D01*
X174428571Y-89524819D02*
X174333333Y-89477200D01*
X174333333Y-89477200D02*
X174285714Y-89429580D01*
X174285714Y-89429580D02*
X174238095Y-89334342D01*
X174238095Y-89334342D02*
X174190476Y-89143866D01*
X174190476Y-89143866D02*
X174190476Y-88905771D01*
X174190476Y-88905771D02*
X174238095Y-88715295D01*
X174238095Y-88715295D02*
X174285714Y-88620057D01*
X174285714Y-88620057D02*
X174333333Y-88572438D01*
X174333333Y-88572438D02*
X174428571Y-88524819D01*
X146616666Y-83679819D02*
X146616666Y-84394104D01*
X146616666Y-84394104D02*
X146569047Y-84536961D01*
X146569047Y-84536961D02*
X146473809Y-84632200D01*
X146473809Y-84632200D02*
X146330952Y-84679819D01*
X146330952Y-84679819D02*
X146235714Y-84679819D01*
X147569047Y-83679819D02*
X147092857Y-83679819D01*
X147092857Y-83679819D02*
X147045238Y-84156009D01*
X147045238Y-84156009D02*
X147092857Y-84108390D01*
X147092857Y-84108390D02*
X147188095Y-84060771D01*
X147188095Y-84060771D02*
X147426190Y-84060771D01*
X147426190Y-84060771D02*
X147521428Y-84108390D01*
X147521428Y-84108390D02*
X147569047Y-84156009D01*
X147569047Y-84156009D02*
X147616666Y-84251247D01*
X147616666Y-84251247D02*
X147616666Y-84489342D01*
X147616666Y-84489342D02*
X147569047Y-84584580D01*
X147569047Y-84584580D02*
X147521428Y-84632200D01*
X147521428Y-84632200D02*
X147426190Y-84679819D01*
X147426190Y-84679819D02*
X147188095Y-84679819D01*
X147188095Y-84679819D02*
X147092857Y-84632200D01*
X147092857Y-84632200D02*
X147045238Y-84584580D01*
X100316667Y-61557200D02*
X100459524Y-61604819D01*
X100459524Y-61604819D02*
X100697619Y-61604819D01*
X100697619Y-61604819D02*
X100792857Y-61557200D01*
X100792857Y-61557200D02*
X100840476Y-61509580D01*
X100840476Y-61509580D02*
X100888095Y-61414342D01*
X100888095Y-61414342D02*
X100888095Y-61319104D01*
X100888095Y-61319104D02*
X100840476Y-61223866D01*
X100840476Y-61223866D02*
X100792857Y-61176247D01*
X100792857Y-61176247D02*
X100697619Y-61128628D01*
X100697619Y-61128628D02*
X100507143Y-61081009D01*
X100507143Y-61081009D02*
X100411905Y-61033390D01*
X100411905Y-61033390D02*
X100364286Y-60985771D01*
X100364286Y-60985771D02*
X100316667Y-60890533D01*
X100316667Y-60890533D02*
X100316667Y-60795295D01*
X100316667Y-60795295D02*
X100364286Y-60700057D01*
X100364286Y-60700057D02*
X100411905Y-60652438D01*
X100411905Y-60652438D02*
X100507143Y-60604819D01*
X100507143Y-60604819D02*
X100745238Y-60604819D01*
X100745238Y-60604819D02*
X100888095Y-60652438D01*
X101221429Y-60604819D02*
X101459524Y-61604819D01*
X101459524Y-61604819D02*
X101650000Y-60890533D01*
X101650000Y-60890533D02*
X101840476Y-61604819D01*
X101840476Y-61604819D02*
X102078572Y-60604819D01*
X102411905Y-60700057D02*
X102459524Y-60652438D01*
X102459524Y-60652438D02*
X102554762Y-60604819D01*
X102554762Y-60604819D02*
X102792857Y-60604819D01*
X102792857Y-60604819D02*
X102888095Y-60652438D01*
X102888095Y-60652438D02*
X102935714Y-60700057D01*
X102935714Y-60700057D02*
X102983333Y-60795295D01*
X102983333Y-60795295D02*
X102983333Y-60890533D01*
X102983333Y-60890533D02*
X102935714Y-61033390D01*
X102935714Y-61033390D02*
X102364286Y-61604819D01*
X102364286Y-61604819D02*
X102983333Y-61604819D01*
X132086666Y-58649819D02*
X132086666Y-59364104D01*
X132086666Y-59364104D02*
X132039047Y-59506961D01*
X132039047Y-59506961D02*
X131943809Y-59602200D01*
X131943809Y-59602200D02*
X131800952Y-59649819D01*
X131800952Y-59649819D02*
X131705714Y-59649819D01*
X132705714Y-59078390D02*
X132610476Y-59030771D01*
X132610476Y-59030771D02*
X132562857Y-58983152D01*
X132562857Y-58983152D02*
X132515238Y-58887914D01*
X132515238Y-58887914D02*
X132515238Y-58840295D01*
X132515238Y-58840295D02*
X132562857Y-58745057D01*
X132562857Y-58745057D02*
X132610476Y-58697438D01*
X132610476Y-58697438D02*
X132705714Y-58649819D01*
X132705714Y-58649819D02*
X132896190Y-58649819D01*
X132896190Y-58649819D02*
X132991428Y-58697438D01*
X132991428Y-58697438D02*
X133039047Y-58745057D01*
X133039047Y-58745057D02*
X133086666Y-58840295D01*
X133086666Y-58840295D02*
X133086666Y-58887914D01*
X133086666Y-58887914D02*
X133039047Y-58983152D01*
X133039047Y-58983152D02*
X132991428Y-59030771D01*
X132991428Y-59030771D02*
X132896190Y-59078390D01*
X132896190Y-59078390D02*
X132705714Y-59078390D01*
X132705714Y-59078390D02*
X132610476Y-59126009D01*
X132610476Y-59126009D02*
X132562857Y-59173628D01*
X132562857Y-59173628D02*
X132515238Y-59268866D01*
X132515238Y-59268866D02*
X132515238Y-59459342D01*
X132515238Y-59459342D02*
X132562857Y-59554580D01*
X132562857Y-59554580D02*
X132610476Y-59602200D01*
X132610476Y-59602200D02*
X132705714Y-59649819D01*
X132705714Y-59649819D02*
X132896190Y-59649819D01*
X132896190Y-59649819D02*
X132991428Y-59602200D01*
X132991428Y-59602200D02*
X133039047Y-59554580D01*
X133039047Y-59554580D02*
X133086666Y-59459342D01*
X133086666Y-59459342D02*
X133086666Y-59268866D01*
X133086666Y-59268866D02*
X133039047Y-59173628D01*
X133039047Y-59173628D02*
X132991428Y-59126009D01*
X132991428Y-59126009D02*
X132896190Y-59078390D01*
X153532142Y-90034819D02*
X153198809Y-89558628D01*
X152960714Y-90034819D02*
X152960714Y-89034819D01*
X152960714Y-89034819D02*
X153341666Y-89034819D01*
X153341666Y-89034819D02*
X153436904Y-89082438D01*
X153436904Y-89082438D02*
X153484523Y-89130057D01*
X153484523Y-89130057D02*
X153532142Y-89225295D01*
X153532142Y-89225295D02*
X153532142Y-89368152D01*
X153532142Y-89368152D02*
X153484523Y-89463390D01*
X153484523Y-89463390D02*
X153436904Y-89511009D01*
X153436904Y-89511009D02*
X153341666Y-89558628D01*
X153341666Y-89558628D02*
X152960714Y-89558628D01*
X154484523Y-90034819D02*
X153913095Y-90034819D01*
X154198809Y-90034819D02*
X154198809Y-89034819D01*
X154198809Y-89034819D02*
X154103571Y-89177676D01*
X154103571Y-89177676D02*
X154008333Y-89272914D01*
X154008333Y-89272914D02*
X153913095Y-89320533D01*
X155436904Y-90034819D02*
X154865476Y-90034819D01*
X155151190Y-90034819D02*
X155151190Y-89034819D01*
X155151190Y-89034819D02*
X155055952Y-89177676D01*
X155055952Y-89177676D02*
X154960714Y-89272914D01*
X154960714Y-89272914D02*
X154865476Y-89320533D01*
X131875595Y-44504819D02*
X131875595Y-45314342D01*
X131875595Y-45314342D02*
X131923214Y-45409580D01*
X131923214Y-45409580D02*
X131970833Y-45457200D01*
X131970833Y-45457200D02*
X132066071Y-45504819D01*
X132066071Y-45504819D02*
X132256547Y-45504819D01*
X132256547Y-45504819D02*
X132351785Y-45457200D01*
X132351785Y-45457200D02*
X132399404Y-45409580D01*
X132399404Y-45409580D02*
X132447023Y-45314342D01*
X132447023Y-45314342D02*
X132447023Y-44504819D01*
X133447023Y-45504819D02*
X132875595Y-45504819D01*
X133161309Y-45504819D02*
X133161309Y-44504819D01*
X133161309Y-44504819D02*
X133066071Y-44647676D01*
X133066071Y-44647676D02*
X132970833Y-44742914D01*
X132970833Y-44742914D02*
X132875595Y-44790533D01*
X96658333Y-74944819D02*
X96325000Y-74468628D01*
X96086905Y-74944819D02*
X96086905Y-73944819D01*
X96086905Y-73944819D02*
X96467857Y-73944819D01*
X96467857Y-73944819D02*
X96563095Y-73992438D01*
X96563095Y-73992438D02*
X96610714Y-74040057D01*
X96610714Y-74040057D02*
X96658333Y-74135295D01*
X96658333Y-74135295D02*
X96658333Y-74278152D01*
X96658333Y-74278152D02*
X96610714Y-74373390D01*
X96610714Y-74373390D02*
X96563095Y-74421009D01*
X96563095Y-74421009D02*
X96467857Y-74468628D01*
X96467857Y-74468628D02*
X96086905Y-74468628D01*
X96991667Y-73944819D02*
X97658333Y-73944819D01*
X97658333Y-73944819D02*
X97229762Y-74944819D01*
X101974405Y-107524819D02*
X101974405Y-106524819D01*
X101974405Y-106524819D02*
X102212500Y-106524819D01*
X102212500Y-106524819D02*
X102355357Y-106572438D01*
X102355357Y-106572438D02*
X102450595Y-106667676D01*
X102450595Y-106667676D02*
X102498214Y-106762914D01*
X102498214Y-106762914D02*
X102545833Y-106953390D01*
X102545833Y-106953390D02*
X102545833Y-107096247D01*
X102545833Y-107096247D02*
X102498214Y-107286723D01*
X102498214Y-107286723D02*
X102450595Y-107381961D01*
X102450595Y-107381961D02*
X102355357Y-107477200D01*
X102355357Y-107477200D02*
X102212500Y-107524819D01*
X102212500Y-107524819D02*
X101974405Y-107524819D01*
X103498214Y-107524819D02*
X102926786Y-107524819D01*
X103212500Y-107524819D02*
X103212500Y-106524819D01*
X103212500Y-106524819D02*
X103117262Y-106667676D01*
X103117262Y-106667676D02*
X103022024Y-106762914D01*
X103022024Y-106762914D02*
X102926786Y-106810533D01*
X83973333Y-77324819D02*
X83640000Y-76848628D01*
X83401905Y-77324819D02*
X83401905Y-76324819D01*
X83401905Y-76324819D02*
X83782857Y-76324819D01*
X83782857Y-76324819D02*
X83878095Y-76372438D01*
X83878095Y-76372438D02*
X83925714Y-76420057D01*
X83925714Y-76420057D02*
X83973333Y-76515295D01*
X83973333Y-76515295D02*
X83973333Y-76658152D01*
X83973333Y-76658152D02*
X83925714Y-76753390D01*
X83925714Y-76753390D02*
X83878095Y-76801009D01*
X83878095Y-76801009D02*
X83782857Y-76848628D01*
X83782857Y-76848628D02*
X83401905Y-76848628D01*
X84544762Y-76753390D02*
X84449524Y-76705771D01*
X84449524Y-76705771D02*
X84401905Y-76658152D01*
X84401905Y-76658152D02*
X84354286Y-76562914D01*
X84354286Y-76562914D02*
X84354286Y-76515295D01*
X84354286Y-76515295D02*
X84401905Y-76420057D01*
X84401905Y-76420057D02*
X84449524Y-76372438D01*
X84449524Y-76372438D02*
X84544762Y-76324819D01*
X84544762Y-76324819D02*
X84735238Y-76324819D01*
X84735238Y-76324819D02*
X84830476Y-76372438D01*
X84830476Y-76372438D02*
X84878095Y-76420057D01*
X84878095Y-76420057D02*
X84925714Y-76515295D01*
X84925714Y-76515295D02*
X84925714Y-76562914D01*
X84925714Y-76562914D02*
X84878095Y-76658152D01*
X84878095Y-76658152D02*
X84830476Y-76705771D01*
X84830476Y-76705771D02*
X84735238Y-76753390D01*
X84735238Y-76753390D02*
X84544762Y-76753390D01*
X84544762Y-76753390D02*
X84449524Y-76801009D01*
X84449524Y-76801009D02*
X84401905Y-76848628D01*
X84401905Y-76848628D02*
X84354286Y-76943866D01*
X84354286Y-76943866D02*
X84354286Y-77134342D01*
X84354286Y-77134342D02*
X84401905Y-77229580D01*
X84401905Y-77229580D02*
X84449524Y-77277200D01*
X84449524Y-77277200D02*
X84544762Y-77324819D01*
X84544762Y-77324819D02*
X84735238Y-77324819D01*
X84735238Y-77324819D02*
X84830476Y-77277200D01*
X84830476Y-77277200D02*
X84878095Y-77229580D01*
X84878095Y-77229580D02*
X84925714Y-77134342D01*
X84925714Y-77134342D02*
X84925714Y-76943866D01*
X84925714Y-76943866D02*
X84878095Y-76848628D01*
X84878095Y-76848628D02*
X84830476Y-76801009D01*
X84830476Y-76801009D02*
X84735238Y-76753390D01*
X169713095Y-74689819D02*
X169713095Y-75499342D01*
X169713095Y-75499342D02*
X169760714Y-75594580D01*
X169760714Y-75594580D02*
X169808333Y-75642200D01*
X169808333Y-75642200D02*
X169903571Y-75689819D01*
X169903571Y-75689819D02*
X170094047Y-75689819D01*
X170094047Y-75689819D02*
X170189285Y-75642200D01*
X170189285Y-75642200D02*
X170236904Y-75594580D01*
X170236904Y-75594580D02*
X170284523Y-75499342D01*
X170284523Y-75499342D02*
X170284523Y-74689819D01*
X170665476Y-74689819D02*
X171332142Y-74689819D01*
X171332142Y-74689819D02*
X170903571Y-75689819D01*
X93166666Y-101794819D02*
X93166666Y-102509104D01*
X93166666Y-102509104D02*
X93119047Y-102651961D01*
X93119047Y-102651961D02*
X93023809Y-102747200D01*
X93023809Y-102747200D02*
X92880952Y-102794819D01*
X92880952Y-102794819D02*
X92785714Y-102794819D01*
X94071428Y-101794819D02*
X93880952Y-101794819D01*
X93880952Y-101794819D02*
X93785714Y-101842438D01*
X93785714Y-101842438D02*
X93738095Y-101890057D01*
X93738095Y-101890057D02*
X93642857Y-102032914D01*
X93642857Y-102032914D02*
X93595238Y-102223390D01*
X93595238Y-102223390D02*
X93595238Y-102604342D01*
X93595238Y-102604342D02*
X93642857Y-102699580D01*
X93642857Y-102699580D02*
X93690476Y-102747200D01*
X93690476Y-102747200D02*
X93785714Y-102794819D01*
X93785714Y-102794819D02*
X93976190Y-102794819D01*
X93976190Y-102794819D02*
X94071428Y-102747200D01*
X94071428Y-102747200D02*
X94119047Y-102699580D01*
X94119047Y-102699580D02*
X94166666Y-102604342D01*
X94166666Y-102604342D02*
X94166666Y-102366247D01*
X94166666Y-102366247D02*
X94119047Y-102271009D01*
X94119047Y-102271009D02*
X94071428Y-102223390D01*
X94071428Y-102223390D02*
X93976190Y-102175771D01*
X93976190Y-102175771D02*
X93785714Y-102175771D01*
X93785714Y-102175771D02*
X93690476Y-102223390D01*
X93690476Y-102223390D02*
X93642857Y-102271009D01*
X93642857Y-102271009D02*
X93595238Y-102366247D01*
X145738095Y-52306819D02*
X146309523Y-52306819D01*
X146023809Y-53306819D02*
X146023809Y-52306819D01*
X146642857Y-53306819D02*
X146642857Y-52306819D01*
X146642857Y-52306819D02*
X147023809Y-52306819D01*
X147023809Y-52306819D02*
X147119047Y-52354438D01*
X147119047Y-52354438D02*
X147166666Y-52402057D01*
X147166666Y-52402057D02*
X147214285Y-52497295D01*
X147214285Y-52497295D02*
X147214285Y-52640152D01*
X147214285Y-52640152D02*
X147166666Y-52735390D01*
X147166666Y-52735390D02*
X147119047Y-52783009D01*
X147119047Y-52783009D02*
X147023809Y-52830628D01*
X147023809Y-52830628D02*
X146642857Y-52830628D01*
X148166666Y-53306819D02*
X147595238Y-53306819D01*
X147880952Y-53306819D02*
X147880952Y-52306819D01*
X147880952Y-52306819D02*
X147785714Y-52449676D01*
X147785714Y-52449676D02*
X147690476Y-52544914D01*
X147690476Y-52544914D02*
X147595238Y-52592533D01*
X172738095Y-109806819D02*
X173309523Y-109806819D01*
X173023809Y-110806819D02*
X173023809Y-109806819D01*
X173642857Y-110806819D02*
X173642857Y-109806819D01*
X173642857Y-109806819D02*
X174023809Y-109806819D01*
X174023809Y-109806819D02*
X174119047Y-109854438D01*
X174119047Y-109854438D02*
X174166666Y-109902057D01*
X174166666Y-109902057D02*
X174214285Y-109997295D01*
X174214285Y-109997295D02*
X174214285Y-110140152D01*
X174214285Y-110140152D02*
X174166666Y-110235390D01*
X174166666Y-110235390D02*
X174119047Y-110283009D01*
X174119047Y-110283009D02*
X174023809Y-110330628D01*
X174023809Y-110330628D02*
X173642857Y-110330628D01*
X174547619Y-109806819D02*
X175214285Y-109806819D01*
X175214285Y-109806819D02*
X174785714Y-110806819D01*
X160032142Y-77159819D02*
X159698809Y-76683628D01*
X159460714Y-77159819D02*
X159460714Y-76159819D01*
X159460714Y-76159819D02*
X159841666Y-76159819D01*
X159841666Y-76159819D02*
X159936904Y-76207438D01*
X159936904Y-76207438D02*
X159984523Y-76255057D01*
X159984523Y-76255057D02*
X160032142Y-76350295D01*
X160032142Y-76350295D02*
X160032142Y-76493152D01*
X160032142Y-76493152D02*
X159984523Y-76588390D01*
X159984523Y-76588390D02*
X159936904Y-76636009D01*
X159936904Y-76636009D02*
X159841666Y-76683628D01*
X159841666Y-76683628D02*
X159460714Y-76683628D01*
X160984523Y-77159819D02*
X160413095Y-77159819D01*
X160698809Y-77159819D02*
X160698809Y-76159819D01*
X160698809Y-76159819D02*
X160603571Y-76302676D01*
X160603571Y-76302676D02*
X160508333Y-76397914D01*
X160508333Y-76397914D02*
X160413095Y-76445533D01*
X161841666Y-76159819D02*
X161651190Y-76159819D01*
X161651190Y-76159819D02*
X161555952Y-76207438D01*
X161555952Y-76207438D02*
X161508333Y-76255057D01*
X161508333Y-76255057D02*
X161413095Y-76397914D01*
X161413095Y-76397914D02*
X161365476Y-76588390D01*
X161365476Y-76588390D02*
X161365476Y-76969342D01*
X161365476Y-76969342D02*
X161413095Y-77064580D01*
X161413095Y-77064580D02*
X161460714Y-77112200D01*
X161460714Y-77112200D02*
X161555952Y-77159819D01*
X161555952Y-77159819D02*
X161746428Y-77159819D01*
X161746428Y-77159819D02*
X161841666Y-77112200D01*
X161841666Y-77112200D02*
X161889285Y-77064580D01*
X161889285Y-77064580D02*
X161936904Y-76969342D01*
X161936904Y-76969342D02*
X161936904Y-76731247D01*
X161936904Y-76731247D02*
X161889285Y-76636009D01*
X161889285Y-76636009D02*
X161841666Y-76588390D01*
X161841666Y-76588390D02*
X161746428Y-76540771D01*
X161746428Y-76540771D02*
X161555952Y-76540771D01*
X161555952Y-76540771D02*
X161460714Y-76588390D01*
X161460714Y-76588390D02*
X161413095Y-76636009D01*
X161413095Y-76636009D02*
X161365476Y-76731247D01*
X166238095Y-112806819D02*
X166809523Y-112806819D01*
X166523809Y-113806819D02*
X166523809Y-112806819D01*
X167142857Y-113806819D02*
X167142857Y-112806819D01*
X167142857Y-112806819D02*
X167523809Y-112806819D01*
X167523809Y-112806819D02*
X167619047Y-112854438D01*
X167619047Y-112854438D02*
X167666666Y-112902057D01*
X167666666Y-112902057D02*
X167714285Y-112997295D01*
X167714285Y-112997295D02*
X167714285Y-113140152D01*
X167714285Y-113140152D02*
X167666666Y-113235390D01*
X167666666Y-113235390D02*
X167619047Y-113283009D01*
X167619047Y-113283009D02*
X167523809Y-113330628D01*
X167523809Y-113330628D02*
X167142857Y-113330628D01*
X168571428Y-113140152D02*
X168571428Y-113806819D01*
X168333333Y-112759200D02*
X168095238Y-113473485D01*
X168095238Y-113473485D02*
X168714285Y-113473485D01*
X138811905Y-84329819D02*
X138811905Y-83329819D01*
X138811905Y-83329819D02*
X139050000Y-83329819D01*
X139050000Y-83329819D02*
X139192857Y-83377438D01*
X139192857Y-83377438D02*
X139288095Y-83472676D01*
X139288095Y-83472676D02*
X139335714Y-83567914D01*
X139335714Y-83567914D02*
X139383333Y-83758390D01*
X139383333Y-83758390D02*
X139383333Y-83901247D01*
X139383333Y-83901247D02*
X139335714Y-84091723D01*
X139335714Y-84091723D02*
X139288095Y-84186961D01*
X139288095Y-84186961D02*
X139192857Y-84282200D01*
X139192857Y-84282200D02*
X139050000Y-84329819D01*
X139050000Y-84329819D02*
X138811905Y-84329819D01*
X139716667Y-83329819D02*
X140335714Y-83329819D01*
X140335714Y-83329819D02*
X140002381Y-83710771D01*
X140002381Y-83710771D02*
X140145238Y-83710771D01*
X140145238Y-83710771D02*
X140240476Y-83758390D01*
X140240476Y-83758390D02*
X140288095Y-83806009D01*
X140288095Y-83806009D02*
X140335714Y-83901247D01*
X140335714Y-83901247D02*
X140335714Y-84139342D01*
X140335714Y-84139342D02*
X140288095Y-84234580D01*
X140288095Y-84234580D02*
X140240476Y-84282200D01*
X140240476Y-84282200D02*
X140145238Y-84329819D01*
X140145238Y-84329819D02*
X139859524Y-84329819D01*
X139859524Y-84329819D02*
X139764286Y-84282200D01*
X139764286Y-84282200D02*
X139716667Y-84234580D01*
X163254819Y-68161904D02*
X164064342Y-68161904D01*
X164064342Y-68161904D02*
X164159580Y-68114285D01*
X164159580Y-68114285D02*
X164207200Y-68066666D01*
X164207200Y-68066666D02*
X164254819Y-67971428D01*
X164254819Y-67971428D02*
X164254819Y-67780952D01*
X164254819Y-67780952D02*
X164207200Y-67685714D01*
X164207200Y-67685714D02*
X164159580Y-67638095D01*
X164159580Y-67638095D02*
X164064342Y-67590476D01*
X164064342Y-67590476D02*
X163254819Y-67590476D01*
X163350057Y-67161904D02*
X163302438Y-67114285D01*
X163302438Y-67114285D02*
X163254819Y-67019047D01*
X163254819Y-67019047D02*
X163254819Y-66780952D01*
X163254819Y-66780952D02*
X163302438Y-66685714D01*
X163302438Y-66685714D02*
X163350057Y-66638095D01*
X163350057Y-66638095D02*
X163445295Y-66590476D01*
X163445295Y-66590476D02*
X163540533Y-66590476D01*
X163540533Y-66590476D02*
X163683390Y-66638095D01*
X163683390Y-66638095D02*
X164254819Y-67209523D01*
X164254819Y-67209523D02*
X164254819Y-66590476D01*
X162833333Y-54024819D02*
X162500000Y-53548628D01*
X162261905Y-54024819D02*
X162261905Y-53024819D01*
X162261905Y-53024819D02*
X162642857Y-53024819D01*
X162642857Y-53024819D02*
X162738095Y-53072438D01*
X162738095Y-53072438D02*
X162785714Y-53120057D01*
X162785714Y-53120057D02*
X162833333Y-53215295D01*
X162833333Y-53215295D02*
X162833333Y-53358152D01*
X162833333Y-53358152D02*
X162785714Y-53453390D01*
X162785714Y-53453390D02*
X162738095Y-53501009D01*
X162738095Y-53501009D02*
X162642857Y-53548628D01*
X162642857Y-53548628D02*
X162261905Y-53548628D01*
X163738095Y-53024819D02*
X163261905Y-53024819D01*
X163261905Y-53024819D02*
X163214286Y-53501009D01*
X163214286Y-53501009D02*
X163261905Y-53453390D01*
X163261905Y-53453390D02*
X163357143Y-53405771D01*
X163357143Y-53405771D02*
X163595238Y-53405771D01*
X163595238Y-53405771D02*
X163690476Y-53453390D01*
X163690476Y-53453390D02*
X163738095Y-53501009D01*
X163738095Y-53501009D02*
X163785714Y-53596247D01*
X163785714Y-53596247D02*
X163785714Y-53834342D01*
X163785714Y-53834342D02*
X163738095Y-53929580D01*
X163738095Y-53929580D02*
X163690476Y-53977200D01*
X163690476Y-53977200D02*
X163595238Y-54024819D01*
X163595238Y-54024819D02*
X163357143Y-54024819D01*
X163357143Y-54024819D02*
X163261905Y-53977200D01*
X163261905Y-53977200D02*
X163214286Y-53929580D01*
X166032142Y-88444819D02*
X165698809Y-87968628D01*
X165460714Y-88444819D02*
X165460714Y-87444819D01*
X165460714Y-87444819D02*
X165841666Y-87444819D01*
X165841666Y-87444819D02*
X165936904Y-87492438D01*
X165936904Y-87492438D02*
X165984523Y-87540057D01*
X165984523Y-87540057D02*
X166032142Y-87635295D01*
X166032142Y-87635295D02*
X166032142Y-87778152D01*
X166032142Y-87778152D02*
X165984523Y-87873390D01*
X165984523Y-87873390D02*
X165936904Y-87921009D01*
X165936904Y-87921009D02*
X165841666Y-87968628D01*
X165841666Y-87968628D02*
X165460714Y-87968628D01*
X166984523Y-88444819D02*
X166413095Y-88444819D01*
X166698809Y-88444819D02*
X166698809Y-87444819D01*
X166698809Y-87444819D02*
X166603571Y-87587676D01*
X166603571Y-87587676D02*
X166508333Y-87682914D01*
X166508333Y-87682914D02*
X166413095Y-87730533D01*
X167365476Y-87540057D02*
X167413095Y-87492438D01*
X167413095Y-87492438D02*
X167508333Y-87444819D01*
X167508333Y-87444819D02*
X167746428Y-87444819D01*
X167746428Y-87444819D02*
X167841666Y-87492438D01*
X167841666Y-87492438D02*
X167889285Y-87540057D01*
X167889285Y-87540057D02*
X167936904Y-87635295D01*
X167936904Y-87635295D02*
X167936904Y-87730533D01*
X167936904Y-87730533D02*
X167889285Y-87873390D01*
X167889285Y-87873390D02*
X167317857Y-88444819D01*
X167317857Y-88444819D02*
X167936904Y-88444819D01*
X111836905Y-116524819D02*
X111836905Y-115524819D01*
X111836905Y-115524819D02*
X112075000Y-115524819D01*
X112075000Y-115524819D02*
X112217857Y-115572438D01*
X112217857Y-115572438D02*
X112313095Y-115667676D01*
X112313095Y-115667676D02*
X112360714Y-115762914D01*
X112360714Y-115762914D02*
X112408333Y-115953390D01*
X112408333Y-115953390D02*
X112408333Y-116096247D01*
X112408333Y-116096247D02*
X112360714Y-116286723D01*
X112360714Y-116286723D02*
X112313095Y-116381961D01*
X112313095Y-116381961D02*
X112217857Y-116477200D01*
X112217857Y-116477200D02*
X112075000Y-116524819D01*
X112075000Y-116524819D02*
X111836905Y-116524819D01*
X112789286Y-115620057D02*
X112836905Y-115572438D01*
X112836905Y-115572438D02*
X112932143Y-115524819D01*
X112932143Y-115524819D02*
X113170238Y-115524819D01*
X113170238Y-115524819D02*
X113265476Y-115572438D01*
X113265476Y-115572438D02*
X113313095Y-115620057D01*
X113313095Y-115620057D02*
X113360714Y-115715295D01*
X113360714Y-115715295D02*
X113360714Y-115810533D01*
X113360714Y-115810533D02*
X113313095Y-115953390D01*
X113313095Y-115953390D02*
X112741667Y-116524819D01*
X112741667Y-116524819D02*
X113360714Y-116524819D01*
X172738095Y-111454819D02*
X173309523Y-111454819D01*
X173023809Y-112454819D02*
X173023809Y-111454819D01*
X173642857Y-112454819D02*
X173642857Y-111454819D01*
X173642857Y-111454819D02*
X174023809Y-111454819D01*
X174023809Y-111454819D02*
X174119047Y-111502438D01*
X174119047Y-111502438D02*
X174166666Y-111550057D01*
X174166666Y-111550057D02*
X174214285Y-111645295D01*
X174214285Y-111645295D02*
X174214285Y-111788152D01*
X174214285Y-111788152D02*
X174166666Y-111883390D01*
X174166666Y-111883390D02*
X174119047Y-111931009D01*
X174119047Y-111931009D02*
X174023809Y-111978628D01*
X174023809Y-111978628D02*
X173642857Y-111978628D01*
X174690476Y-112454819D02*
X174880952Y-112454819D01*
X174880952Y-112454819D02*
X174976190Y-112407200D01*
X174976190Y-112407200D02*
X175023809Y-112359580D01*
X175023809Y-112359580D02*
X175119047Y-112216723D01*
X175119047Y-112216723D02*
X175166666Y-112026247D01*
X175166666Y-112026247D02*
X175166666Y-111645295D01*
X175166666Y-111645295D02*
X175119047Y-111550057D01*
X175119047Y-111550057D02*
X175071428Y-111502438D01*
X175071428Y-111502438D02*
X174976190Y-111454819D01*
X174976190Y-111454819D02*
X174785714Y-111454819D01*
X174785714Y-111454819D02*
X174690476Y-111502438D01*
X174690476Y-111502438D02*
X174642857Y-111550057D01*
X174642857Y-111550057D02*
X174595238Y-111645295D01*
X174595238Y-111645295D02*
X174595238Y-111883390D01*
X174595238Y-111883390D02*
X174642857Y-111978628D01*
X174642857Y-111978628D02*
X174690476Y-112026247D01*
X174690476Y-112026247D02*
X174785714Y-112073866D01*
X174785714Y-112073866D02*
X174976190Y-112073866D01*
X174976190Y-112073866D02*
X175071428Y-112026247D01*
X175071428Y-112026247D02*
X175119047Y-111978628D01*
X175119047Y-111978628D02*
X175166666Y-111883390D01*
X149761905Y-117806819D02*
X150333333Y-117806819D01*
X150047619Y-118806819D02*
X150047619Y-117806819D01*
X150666667Y-118806819D02*
X150666667Y-117806819D01*
X150666667Y-117806819D02*
X151047619Y-117806819D01*
X151047619Y-117806819D02*
X151142857Y-117854438D01*
X151142857Y-117854438D02*
X151190476Y-117902057D01*
X151190476Y-117902057D02*
X151238095Y-117997295D01*
X151238095Y-117997295D02*
X151238095Y-118140152D01*
X151238095Y-118140152D02*
X151190476Y-118235390D01*
X151190476Y-118235390D02*
X151142857Y-118283009D01*
X151142857Y-118283009D02*
X151047619Y-118330628D01*
X151047619Y-118330628D02*
X150666667Y-118330628D01*
X152190476Y-118806819D02*
X151619048Y-118806819D01*
X151904762Y-118806819D02*
X151904762Y-117806819D01*
X151904762Y-117806819D02*
X151809524Y-117949676D01*
X151809524Y-117949676D02*
X151714286Y-118044914D01*
X151714286Y-118044914D02*
X151619048Y-118092533D01*
X153047619Y-117806819D02*
X152857143Y-117806819D01*
X152857143Y-117806819D02*
X152761905Y-117854438D01*
X152761905Y-117854438D02*
X152714286Y-117902057D01*
X152714286Y-117902057D02*
X152619048Y-118044914D01*
X152619048Y-118044914D02*
X152571429Y-118235390D01*
X152571429Y-118235390D02*
X152571429Y-118616342D01*
X152571429Y-118616342D02*
X152619048Y-118711580D01*
X152619048Y-118711580D02*
X152666667Y-118759200D01*
X152666667Y-118759200D02*
X152761905Y-118806819D01*
X152761905Y-118806819D02*
X152952381Y-118806819D01*
X152952381Y-118806819D02*
X153047619Y-118759200D01*
X153047619Y-118759200D02*
X153095238Y-118711580D01*
X153095238Y-118711580D02*
X153142857Y-118616342D01*
X153142857Y-118616342D02*
X153142857Y-118378247D01*
X153142857Y-118378247D02*
X153095238Y-118283009D01*
X153095238Y-118283009D02*
X153047619Y-118235390D01*
X153047619Y-118235390D02*
X152952381Y-118187771D01*
X152952381Y-118187771D02*
X152761905Y-118187771D01*
X152761905Y-118187771D02*
X152666667Y-118235390D01*
X152666667Y-118235390D02*
X152619048Y-118283009D01*
X152619048Y-118283009D02*
X152571429Y-118378247D01*
X90558333Y-77859580D02*
X90510714Y-77907200D01*
X90510714Y-77907200D02*
X90367857Y-77954819D01*
X90367857Y-77954819D02*
X90272619Y-77954819D01*
X90272619Y-77954819D02*
X90129762Y-77907200D01*
X90129762Y-77907200D02*
X90034524Y-77811961D01*
X90034524Y-77811961D02*
X89986905Y-77716723D01*
X89986905Y-77716723D02*
X89939286Y-77526247D01*
X89939286Y-77526247D02*
X89939286Y-77383390D01*
X89939286Y-77383390D02*
X89986905Y-77192914D01*
X89986905Y-77192914D02*
X90034524Y-77097676D01*
X90034524Y-77097676D02*
X90129762Y-77002438D01*
X90129762Y-77002438D02*
X90272619Y-76954819D01*
X90272619Y-76954819D02*
X90367857Y-76954819D01*
X90367857Y-76954819D02*
X90510714Y-77002438D01*
X90510714Y-77002438D02*
X90558333Y-77050057D01*
X90891667Y-76954819D02*
X91558333Y-76954819D01*
X91558333Y-76954819D02*
X91129762Y-77954819D01*
X126261905Y-116024819D02*
X126261905Y-115024819D01*
X126261905Y-115024819D02*
X126500000Y-115024819D01*
X126500000Y-115024819D02*
X126642857Y-115072438D01*
X126642857Y-115072438D02*
X126738095Y-115167676D01*
X126738095Y-115167676D02*
X126785714Y-115262914D01*
X126785714Y-115262914D02*
X126833333Y-115453390D01*
X126833333Y-115453390D02*
X126833333Y-115596247D01*
X126833333Y-115596247D02*
X126785714Y-115786723D01*
X126785714Y-115786723D02*
X126738095Y-115881961D01*
X126738095Y-115881961D02*
X126642857Y-115977200D01*
X126642857Y-115977200D02*
X126500000Y-116024819D01*
X126500000Y-116024819D02*
X126261905Y-116024819D01*
X127690476Y-115024819D02*
X127500000Y-115024819D01*
X127500000Y-115024819D02*
X127404762Y-115072438D01*
X127404762Y-115072438D02*
X127357143Y-115120057D01*
X127357143Y-115120057D02*
X127261905Y-115262914D01*
X127261905Y-115262914D02*
X127214286Y-115453390D01*
X127214286Y-115453390D02*
X127214286Y-115834342D01*
X127214286Y-115834342D02*
X127261905Y-115929580D01*
X127261905Y-115929580D02*
X127309524Y-115977200D01*
X127309524Y-115977200D02*
X127404762Y-116024819D01*
X127404762Y-116024819D02*
X127595238Y-116024819D01*
X127595238Y-116024819D02*
X127690476Y-115977200D01*
X127690476Y-115977200D02*
X127738095Y-115929580D01*
X127738095Y-115929580D02*
X127785714Y-115834342D01*
X127785714Y-115834342D02*
X127785714Y-115596247D01*
X127785714Y-115596247D02*
X127738095Y-115501009D01*
X127738095Y-115501009D02*
X127690476Y-115453390D01*
X127690476Y-115453390D02*
X127595238Y-115405771D01*
X127595238Y-115405771D02*
X127404762Y-115405771D01*
X127404762Y-115405771D02*
X127309524Y-115453390D01*
X127309524Y-115453390D02*
X127261905Y-115501009D01*
X127261905Y-115501009D02*
X127214286Y-115596247D01*
X101357142Y-106419580D02*
X101309523Y-106467200D01*
X101309523Y-106467200D02*
X101166666Y-106514819D01*
X101166666Y-106514819D02*
X101071428Y-106514819D01*
X101071428Y-106514819D02*
X100928571Y-106467200D01*
X100928571Y-106467200D02*
X100833333Y-106371961D01*
X100833333Y-106371961D02*
X100785714Y-106276723D01*
X100785714Y-106276723D02*
X100738095Y-106086247D01*
X100738095Y-106086247D02*
X100738095Y-105943390D01*
X100738095Y-105943390D02*
X100785714Y-105752914D01*
X100785714Y-105752914D02*
X100833333Y-105657676D01*
X100833333Y-105657676D02*
X100928571Y-105562438D01*
X100928571Y-105562438D02*
X101071428Y-105514819D01*
X101071428Y-105514819D02*
X101166666Y-105514819D01*
X101166666Y-105514819D02*
X101309523Y-105562438D01*
X101309523Y-105562438D02*
X101357142Y-105610057D01*
X102309523Y-106514819D02*
X101738095Y-106514819D01*
X102023809Y-106514819D02*
X102023809Y-105514819D01*
X102023809Y-105514819D02*
X101928571Y-105657676D01*
X101928571Y-105657676D02*
X101833333Y-105752914D01*
X101833333Y-105752914D02*
X101738095Y-105800533D01*
X103261904Y-106514819D02*
X102690476Y-106514819D01*
X102976190Y-106514819D02*
X102976190Y-105514819D01*
X102976190Y-105514819D02*
X102880952Y-105657676D01*
X102880952Y-105657676D02*
X102785714Y-105752914D01*
X102785714Y-105752914D02*
X102690476Y-105800533D01*
X150238095Y-110454819D02*
X150809523Y-110454819D01*
X150523809Y-111454819D02*
X150523809Y-110454819D01*
X151142857Y-111454819D02*
X151142857Y-110454819D01*
X151142857Y-110454819D02*
X151523809Y-110454819D01*
X151523809Y-110454819D02*
X151619047Y-110502438D01*
X151619047Y-110502438D02*
X151666666Y-110550057D01*
X151666666Y-110550057D02*
X151714285Y-110645295D01*
X151714285Y-110645295D02*
X151714285Y-110788152D01*
X151714285Y-110788152D02*
X151666666Y-110883390D01*
X151666666Y-110883390D02*
X151619047Y-110931009D01*
X151619047Y-110931009D02*
X151523809Y-110978628D01*
X151523809Y-110978628D02*
X151142857Y-110978628D01*
X152095238Y-110550057D02*
X152142857Y-110502438D01*
X152142857Y-110502438D02*
X152238095Y-110454819D01*
X152238095Y-110454819D02*
X152476190Y-110454819D01*
X152476190Y-110454819D02*
X152571428Y-110502438D01*
X152571428Y-110502438D02*
X152619047Y-110550057D01*
X152619047Y-110550057D02*
X152666666Y-110645295D01*
X152666666Y-110645295D02*
X152666666Y-110740533D01*
X152666666Y-110740533D02*
X152619047Y-110883390D01*
X152619047Y-110883390D02*
X152047619Y-111454819D01*
X152047619Y-111454819D02*
X152666666Y-111454819D01*
X95357142Y-79324819D02*
X95023809Y-78848628D01*
X94785714Y-79324819D02*
X94785714Y-78324819D01*
X94785714Y-78324819D02*
X95166666Y-78324819D01*
X95166666Y-78324819D02*
X95261904Y-78372438D01*
X95261904Y-78372438D02*
X95309523Y-78420057D01*
X95309523Y-78420057D02*
X95357142Y-78515295D01*
X95357142Y-78515295D02*
X95357142Y-78658152D01*
X95357142Y-78658152D02*
X95309523Y-78753390D01*
X95309523Y-78753390D02*
X95261904Y-78801009D01*
X95261904Y-78801009D02*
X95166666Y-78848628D01*
X95166666Y-78848628D02*
X94785714Y-78848628D01*
X95738095Y-79277200D02*
X95880952Y-79324819D01*
X95880952Y-79324819D02*
X96119047Y-79324819D01*
X96119047Y-79324819D02*
X96214285Y-79277200D01*
X96214285Y-79277200D02*
X96261904Y-79229580D01*
X96261904Y-79229580D02*
X96309523Y-79134342D01*
X96309523Y-79134342D02*
X96309523Y-79039104D01*
X96309523Y-79039104D02*
X96261904Y-78943866D01*
X96261904Y-78943866D02*
X96214285Y-78896247D01*
X96214285Y-78896247D02*
X96119047Y-78848628D01*
X96119047Y-78848628D02*
X95928571Y-78801009D01*
X95928571Y-78801009D02*
X95833333Y-78753390D01*
X95833333Y-78753390D02*
X95785714Y-78705771D01*
X95785714Y-78705771D02*
X95738095Y-78610533D01*
X95738095Y-78610533D02*
X95738095Y-78515295D01*
X95738095Y-78515295D02*
X95785714Y-78420057D01*
X95785714Y-78420057D02*
X95833333Y-78372438D01*
X95833333Y-78372438D02*
X95928571Y-78324819D01*
X95928571Y-78324819D02*
X96166666Y-78324819D01*
X96166666Y-78324819D02*
X96309523Y-78372438D01*
X97261904Y-79324819D02*
X96690476Y-79324819D01*
X96976190Y-79324819D02*
X96976190Y-78324819D01*
X96976190Y-78324819D02*
X96880952Y-78467676D01*
X96880952Y-78467676D02*
X96785714Y-78562914D01*
X96785714Y-78562914D02*
X96690476Y-78610533D01*
X126532142Y-112454819D02*
X126198809Y-111978628D01*
X125960714Y-112454819D02*
X125960714Y-111454819D01*
X125960714Y-111454819D02*
X126341666Y-111454819D01*
X126341666Y-111454819D02*
X126436904Y-111502438D01*
X126436904Y-111502438D02*
X126484523Y-111550057D01*
X126484523Y-111550057D02*
X126532142Y-111645295D01*
X126532142Y-111645295D02*
X126532142Y-111788152D01*
X126532142Y-111788152D02*
X126484523Y-111883390D01*
X126484523Y-111883390D02*
X126436904Y-111931009D01*
X126436904Y-111931009D02*
X126341666Y-111978628D01*
X126341666Y-111978628D02*
X125960714Y-111978628D01*
X127484523Y-112454819D02*
X126913095Y-112454819D01*
X127198809Y-112454819D02*
X127198809Y-111454819D01*
X127198809Y-111454819D02*
X127103571Y-111597676D01*
X127103571Y-111597676D02*
X127008333Y-111692914D01*
X127008333Y-111692914D02*
X126913095Y-111740533D01*
X128055952Y-111883390D02*
X127960714Y-111835771D01*
X127960714Y-111835771D02*
X127913095Y-111788152D01*
X127913095Y-111788152D02*
X127865476Y-111692914D01*
X127865476Y-111692914D02*
X127865476Y-111645295D01*
X127865476Y-111645295D02*
X127913095Y-111550057D01*
X127913095Y-111550057D02*
X127960714Y-111502438D01*
X127960714Y-111502438D02*
X128055952Y-111454819D01*
X128055952Y-111454819D02*
X128246428Y-111454819D01*
X128246428Y-111454819D02*
X128341666Y-111502438D01*
X128341666Y-111502438D02*
X128389285Y-111550057D01*
X128389285Y-111550057D02*
X128436904Y-111645295D01*
X128436904Y-111645295D02*
X128436904Y-111692914D01*
X128436904Y-111692914D02*
X128389285Y-111788152D01*
X128389285Y-111788152D02*
X128341666Y-111835771D01*
X128341666Y-111835771D02*
X128246428Y-111883390D01*
X128246428Y-111883390D02*
X128055952Y-111883390D01*
X128055952Y-111883390D02*
X127960714Y-111931009D01*
X127960714Y-111931009D02*
X127913095Y-111978628D01*
X127913095Y-111978628D02*
X127865476Y-112073866D01*
X127865476Y-112073866D02*
X127865476Y-112264342D01*
X127865476Y-112264342D02*
X127913095Y-112359580D01*
X127913095Y-112359580D02*
X127960714Y-112407200D01*
X127960714Y-112407200D02*
X128055952Y-112454819D01*
X128055952Y-112454819D02*
X128246428Y-112454819D01*
X128246428Y-112454819D02*
X128341666Y-112407200D01*
X128341666Y-112407200D02*
X128389285Y-112359580D01*
X128389285Y-112359580D02*
X128436904Y-112264342D01*
X128436904Y-112264342D02*
X128436904Y-112073866D01*
X128436904Y-112073866D02*
X128389285Y-111978628D01*
X128389285Y-111978628D02*
X128341666Y-111931009D01*
X128341666Y-111931009D02*
X128246428Y-111883390D01*
X124738095Y-74729819D02*
X124738095Y-75539342D01*
X124738095Y-75539342D02*
X124785714Y-75634580D01*
X124785714Y-75634580D02*
X124833333Y-75682200D01*
X124833333Y-75682200D02*
X124928571Y-75729819D01*
X124928571Y-75729819D02*
X125119047Y-75729819D01*
X125119047Y-75729819D02*
X125214285Y-75682200D01*
X125214285Y-75682200D02*
X125261904Y-75634580D01*
X125261904Y-75634580D02*
X125309523Y-75539342D01*
X125309523Y-75539342D02*
X125309523Y-74729819D01*
X126214285Y-75063152D02*
X126214285Y-75729819D01*
X125976190Y-74682200D02*
X125738095Y-75396485D01*
X125738095Y-75396485D02*
X126357142Y-75396485D01*
X131833333Y-81024819D02*
X131500000Y-80548628D01*
X131261905Y-81024819D02*
X131261905Y-80024819D01*
X131261905Y-80024819D02*
X131642857Y-80024819D01*
X131642857Y-80024819D02*
X131738095Y-80072438D01*
X131738095Y-80072438D02*
X131785714Y-80120057D01*
X131785714Y-80120057D02*
X131833333Y-80215295D01*
X131833333Y-80215295D02*
X131833333Y-80358152D01*
X131833333Y-80358152D02*
X131785714Y-80453390D01*
X131785714Y-80453390D02*
X131738095Y-80501009D01*
X131738095Y-80501009D02*
X131642857Y-80548628D01*
X131642857Y-80548628D02*
X131261905Y-80548628D01*
X132309524Y-81024819D02*
X132500000Y-81024819D01*
X132500000Y-81024819D02*
X132595238Y-80977200D01*
X132595238Y-80977200D02*
X132642857Y-80929580D01*
X132642857Y-80929580D02*
X132738095Y-80786723D01*
X132738095Y-80786723D02*
X132785714Y-80596247D01*
X132785714Y-80596247D02*
X132785714Y-80215295D01*
X132785714Y-80215295D02*
X132738095Y-80120057D01*
X132738095Y-80120057D02*
X132690476Y-80072438D01*
X132690476Y-80072438D02*
X132595238Y-80024819D01*
X132595238Y-80024819D02*
X132404762Y-80024819D01*
X132404762Y-80024819D02*
X132309524Y-80072438D01*
X132309524Y-80072438D02*
X132261905Y-80120057D01*
X132261905Y-80120057D02*
X132214286Y-80215295D01*
X132214286Y-80215295D02*
X132214286Y-80453390D01*
X132214286Y-80453390D02*
X132261905Y-80548628D01*
X132261905Y-80548628D02*
X132309524Y-80596247D01*
X132309524Y-80596247D02*
X132404762Y-80643866D01*
X132404762Y-80643866D02*
X132595238Y-80643866D01*
X132595238Y-80643866D02*
X132690476Y-80596247D01*
X132690476Y-80596247D02*
X132738095Y-80548628D01*
X132738095Y-80548628D02*
X132785714Y-80453390D01*
X169238095Y-87729819D02*
X169238095Y-88539342D01*
X169238095Y-88539342D02*
X169285714Y-88634580D01*
X169285714Y-88634580D02*
X169333333Y-88682200D01*
X169333333Y-88682200D02*
X169428571Y-88729819D01*
X169428571Y-88729819D02*
X169619047Y-88729819D01*
X169619047Y-88729819D02*
X169714285Y-88682200D01*
X169714285Y-88682200D02*
X169761904Y-88634580D01*
X169761904Y-88634580D02*
X169809523Y-88539342D01*
X169809523Y-88539342D02*
X169809523Y-87729819D01*
X170761904Y-87729819D02*
X170285714Y-87729819D01*
X170285714Y-87729819D02*
X170238095Y-88206009D01*
X170238095Y-88206009D02*
X170285714Y-88158390D01*
X170285714Y-88158390D02*
X170380952Y-88110771D01*
X170380952Y-88110771D02*
X170619047Y-88110771D01*
X170619047Y-88110771D02*
X170714285Y-88158390D01*
X170714285Y-88158390D02*
X170761904Y-88206009D01*
X170761904Y-88206009D02*
X170809523Y-88301247D01*
X170809523Y-88301247D02*
X170809523Y-88539342D01*
X170809523Y-88539342D02*
X170761904Y-88634580D01*
X170761904Y-88634580D02*
X170714285Y-88682200D01*
X170714285Y-88682200D02*
X170619047Y-88729819D01*
X170619047Y-88729819D02*
X170380952Y-88729819D01*
X170380952Y-88729819D02*
X170285714Y-88682200D01*
X170285714Y-88682200D02*
X170238095Y-88634580D01*
X99508333Y-54534819D02*
X99175000Y-54058628D01*
X98936905Y-54534819D02*
X98936905Y-53534819D01*
X98936905Y-53534819D02*
X99317857Y-53534819D01*
X99317857Y-53534819D02*
X99413095Y-53582438D01*
X99413095Y-53582438D02*
X99460714Y-53630057D01*
X99460714Y-53630057D02*
X99508333Y-53725295D01*
X99508333Y-53725295D02*
X99508333Y-53868152D01*
X99508333Y-53868152D02*
X99460714Y-53963390D01*
X99460714Y-53963390D02*
X99413095Y-54011009D01*
X99413095Y-54011009D02*
X99317857Y-54058628D01*
X99317857Y-54058628D02*
X98936905Y-54058628D01*
X99841667Y-53534819D02*
X100460714Y-53534819D01*
X100460714Y-53534819D02*
X100127381Y-53915771D01*
X100127381Y-53915771D02*
X100270238Y-53915771D01*
X100270238Y-53915771D02*
X100365476Y-53963390D01*
X100365476Y-53963390D02*
X100413095Y-54011009D01*
X100413095Y-54011009D02*
X100460714Y-54106247D01*
X100460714Y-54106247D02*
X100460714Y-54344342D01*
X100460714Y-54344342D02*
X100413095Y-54439580D01*
X100413095Y-54439580D02*
X100365476Y-54487200D01*
X100365476Y-54487200D02*
X100270238Y-54534819D01*
X100270238Y-54534819D02*
X99984524Y-54534819D01*
X99984524Y-54534819D02*
X99889286Y-54487200D01*
X99889286Y-54487200D02*
X99841667Y-54439580D01*
X140333333Y-49439580D02*
X140285714Y-49487200D01*
X140285714Y-49487200D02*
X140142857Y-49534819D01*
X140142857Y-49534819D02*
X140047619Y-49534819D01*
X140047619Y-49534819D02*
X139904762Y-49487200D01*
X139904762Y-49487200D02*
X139809524Y-49391961D01*
X139809524Y-49391961D02*
X139761905Y-49296723D01*
X139761905Y-49296723D02*
X139714286Y-49106247D01*
X139714286Y-49106247D02*
X139714286Y-48963390D01*
X139714286Y-48963390D02*
X139761905Y-48772914D01*
X139761905Y-48772914D02*
X139809524Y-48677676D01*
X139809524Y-48677676D02*
X139904762Y-48582438D01*
X139904762Y-48582438D02*
X140047619Y-48534819D01*
X140047619Y-48534819D02*
X140142857Y-48534819D01*
X140142857Y-48534819D02*
X140285714Y-48582438D01*
X140285714Y-48582438D02*
X140333333Y-48630057D01*
X141190476Y-48868152D02*
X141190476Y-49534819D01*
X140952381Y-48487200D02*
X140714286Y-49201485D01*
X140714286Y-49201485D02*
X141333333Y-49201485D01*
X158761905Y-111306819D02*
X159333333Y-111306819D01*
X159047619Y-112306819D02*
X159047619Y-111306819D01*
X159666667Y-112306819D02*
X159666667Y-111306819D01*
X159666667Y-111306819D02*
X160047619Y-111306819D01*
X160047619Y-111306819D02*
X160142857Y-111354438D01*
X160142857Y-111354438D02*
X160190476Y-111402057D01*
X160190476Y-111402057D02*
X160238095Y-111497295D01*
X160238095Y-111497295D02*
X160238095Y-111640152D01*
X160238095Y-111640152D02*
X160190476Y-111735390D01*
X160190476Y-111735390D02*
X160142857Y-111783009D01*
X160142857Y-111783009D02*
X160047619Y-111830628D01*
X160047619Y-111830628D02*
X159666667Y-111830628D01*
X161190476Y-112306819D02*
X160619048Y-112306819D01*
X160904762Y-112306819D02*
X160904762Y-111306819D01*
X160904762Y-111306819D02*
X160809524Y-111449676D01*
X160809524Y-111449676D02*
X160714286Y-111544914D01*
X160714286Y-111544914D02*
X160619048Y-111592533D01*
X161571429Y-111402057D02*
X161619048Y-111354438D01*
X161619048Y-111354438D02*
X161714286Y-111306819D01*
X161714286Y-111306819D02*
X161952381Y-111306819D01*
X161952381Y-111306819D02*
X162047619Y-111354438D01*
X162047619Y-111354438D02*
X162095238Y-111402057D01*
X162095238Y-111402057D02*
X162142857Y-111497295D01*
X162142857Y-111497295D02*
X162142857Y-111592533D01*
X162142857Y-111592533D02*
X162095238Y-111735390D01*
X162095238Y-111735390D02*
X161523810Y-112306819D01*
X161523810Y-112306819D02*
X162142857Y-112306819D01*
X162333333Y-59429580D02*
X162285714Y-59477200D01*
X162285714Y-59477200D02*
X162142857Y-59524819D01*
X162142857Y-59524819D02*
X162047619Y-59524819D01*
X162047619Y-59524819D02*
X161904762Y-59477200D01*
X161904762Y-59477200D02*
X161809524Y-59381961D01*
X161809524Y-59381961D02*
X161761905Y-59286723D01*
X161761905Y-59286723D02*
X161714286Y-59096247D01*
X161714286Y-59096247D02*
X161714286Y-58953390D01*
X161714286Y-58953390D02*
X161761905Y-58762914D01*
X161761905Y-58762914D02*
X161809524Y-58667676D01*
X161809524Y-58667676D02*
X161904762Y-58572438D01*
X161904762Y-58572438D02*
X162047619Y-58524819D01*
X162047619Y-58524819D02*
X162142857Y-58524819D01*
X162142857Y-58524819D02*
X162285714Y-58572438D01*
X162285714Y-58572438D02*
X162333333Y-58620057D01*
X163190476Y-58524819D02*
X163000000Y-58524819D01*
X163000000Y-58524819D02*
X162904762Y-58572438D01*
X162904762Y-58572438D02*
X162857143Y-58620057D01*
X162857143Y-58620057D02*
X162761905Y-58762914D01*
X162761905Y-58762914D02*
X162714286Y-58953390D01*
X162714286Y-58953390D02*
X162714286Y-59334342D01*
X162714286Y-59334342D02*
X162761905Y-59429580D01*
X162761905Y-59429580D02*
X162809524Y-59477200D01*
X162809524Y-59477200D02*
X162904762Y-59524819D01*
X162904762Y-59524819D02*
X163095238Y-59524819D01*
X163095238Y-59524819D02*
X163190476Y-59477200D01*
X163190476Y-59477200D02*
X163238095Y-59429580D01*
X163238095Y-59429580D02*
X163285714Y-59334342D01*
X163285714Y-59334342D02*
X163285714Y-59096247D01*
X163285714Y-59096247D02*
X163238095Y-59001009D01*
X163238095Y-59001009D02*
X163190476Y-58953390D01*
X163190476Y-58953390D02*
X163095238Y-58905771D01*
X163095238Y-58905771D02*
X162904762Y-58905771D01*
X162904762Y-58905771D02*
X162809524Y-58953390D01*
X162809524Y-58953390D02*
X162761905Y-59001009D01*
X162761905Y-59001009D02*
X162714286Y-59096247D01*
X126263095Y-59419819D02*
X126263095Y-60229342D01*
X126263095Y-60229342D02*
X126310714Y-60324580D01*
X126310714Y-60324580D02*
X126358333Y-60372200D01*
X126358333Y-60372200D02*
X126453571Y-60419819D01*
X126453571Y-60419819D02*
X126644047Y-60419819D01*
X126644047Y-60419819D02*
X126739285Y-60372200D01*
X126739285Y-60372200D02*
X126786904Y-60324580D01*
X126786904Y-60324580D02*
X126834523Y-60229342D01*
X126834523Y-60229342D02*
X126834523Y-59419819D01*
X127739285Y-59419819D02*
X127548809Y-59419819D01*
X127548809Y-59419819D02*
X127453571Y-59467438D01*
X127453571Y-59467438D02*
X127405952Y-59515057D01*
X127405952Y-59515057D02*
X127310714Y-59657914D01*
X127310714Y-59657914D02*
X127263095Y-59848390D01*
X127263095Y-59848390D02*
X127263095Y-60229342D01*
X127263095Y-60229342D02*
X127310714Y-60324580D01*
X127310714Y-60324580D02*
X127358333Y-60372200D01*
X127358333Y-60372200D02*
X127453571Y-60419819D01*
X127453571Y-60419819D02*
X127644047Y-60419819D01*
X127644047Y-60419819D02*
X127739285Y-60372200D01*
X127739285Y-60372200D02*
X127786904Y-60324580D01*
X127786904Y-60324580D02*
X127834523Y-60229342D01*
X127834523Y-60229342D02*
X127834523Y-59991247D01*
X127834523Y-59991247D02*
X127786904Y-59896009D01*
X127786904Y-59896009D02*
X127739285Y-59848390D01*
X127739285Y-59848390D02*
X127644047Y-59800771D01*
X127644047Y-59800771D02*
X127453571Y-59800771D01*
X127453571Y-59800771D02*
X127358333Y-59848390D01*
X127358333Y-59848390D02*
X127310714Y-59896009D01*
X127310714Y-59896009D02*
X127263095Y-59991247D01*
X158761905Y-106306819D02*
X159333333Y-106306819D01*
X159047619Y-107306819D02*
X159047619Y-106306819D01*
X159666667Y-107306819D02*
X159666667Y-106306819D01*
X159666667Y-106306819D02*
X160047619Y-106306819D01*
X160047619Y-106306819D02*
X160142857Y-106354438D01*
X160142857Y-106354438D02*
X160190476Y-106402057D01*
X160190476Y-106402057D02*
X160238095Y-106497295D01*
X160238095Y-106497295D02*
X160238095Y-106640152D01*
X160238095Y-106640152D02*
X160190476Y-106735390D01*
X160190476Y-106735390D02*
X160142857Y-106783009D01*
X160142857Y-106783009D02*
X160047619Y-106830628D01*
X160047619Y-106830628D02*
X159666667Y-106830628D01*
X161190476Y-107306819D02*
X160619048Y-107306819D01*
X160904762Y-107306819D02*
X160904762Y-106306819D01*
X160904762Y-106306819D02*
X160809524Y-106449676D01*
X160809524Y-106449676D02*
X160714286Y-106544914D01*
X160714286Y-106544914D02*
X160619048Y-106592533D01*
X162047619Y-106640152D02*
X162047619Y-107306819D01*
X161809524Y-106259200D02*
X161571429Y-106973485D01*
X161571429Y-106973485D02*
X162190476Y-106973485D01*
X162833333Y-56534819D02*
X162500000Y-56058628D01*
X162261905Y-56534819D02*
X162261905Y-55534819D01*
X162261905Y-55534819D02*
X162642857Y-55534819D01*
X162642857Y-55534819D02*
X162738095Y-55582438D01*
X162738095Y-55582438D02*
X162785714Y-55630057D01*
X162785714Y-55630057D02*
X162833333Y-55725295D01*
X162833333Y-55725295D02*
X162833333Y-55868152D01*
X162833333Y-55868152D02*
X162785714Y-55963390D01*
X162785714Y-55963390D02*
X162738095Y-56011009D01*
X162738095Y-56011009D02*
X162642857Y-56058628D01*
X162642857Y-56058628D02*
X162261905Y-56058628D01*
X163690476Y-55534819D02*
X163500000Y-55534819D01*
X163500000Y-55534819D02*
X163404762Y-55582438D01*
X163404762Y-55582438D02*
X163357143Y-55630057D01*
X163357143Y-55630057D02*
X163261905Y-55772914D01*
X163261905Y-55772914D02*
X163214286Y-55963390D01*
X163214286Y-55963390D02*
X163214286Y-56344342D01*
X163214286Y-56344342D02*
X163261905Y-56439580D01*
X163261905Y-56439580D02*
X163309524Y-56487200D01*
X163309524Y-56487200D02*
X163404762Y-56534819D01*
X163404762Y-56534819D02*
X163595238Y-56534819D01*
X163595238Y-56534819D02*
X163690476Y-56487200D01*
X163690476Y-56487200D02*
X163738095Y-56439580D01*
X163738095Y-56439580D02*
X163785714Y-56344342D01*
X163785714Y-56344342D02*
X163785714Y-56106247D01*
X163785714Y-56106247D02*
X163738095Y-56011009D01*
X163738095Y-56011009D02*
X163690476Y-55963390D01*
X163690476Y-55963390D02*
X163595238Y-55915771D01*
X163595238Y-55915771D02*
X163404762Y-55915771D01*
X163404762Y-55915771D02*
X163309524Y-55963390D01*
X163309524Y-55963390D02*
X163261905Y-56011009D01*
X163261905Y-56011009D02*
X163214286Y-56106247D01*
X134633333Y-47779580D02*
X134585714Y-47827200D01*
X134585714Y-47827200D02*
X134442857Y-47874819D01*
X134442857Y-47874819D02*
X134347619Y-47874819D01*
X134347619Y-47874819D02*
X134204762Y-47827200D01*
X134204762Y-47827200D02*
X134109524Y-47731961D01*
X134109524Y-47731961D02*
X134061905Y-47636723D01*
X134061905Y-47636723D02*
X134014286Y-47446247D01*
X134014286Y-47446247D02*
X134014286Y-47303390D01*
X134014286Y-47303390D02*
X134061905Y-47112914D01*
X134061905Y-47112914D02*
X134109524Y-47017676D01*
X134109524Y-47017676D02*
X134204762Y-46922438D01*
X134204762Y-46922438D02*
X134347619Y-46874819D01*
X134347619Y-46874819D02*
X134442857Y-46874819D01*
X134442857Y-46874819D02*
X134585714Y-46922438D01*
X134585714Y-46922438D02*
X134633333Y-46970057D01*
X135014286Y-46970057D02*
X135061905Y-46922438D01*
X135061905Y-46922438D02*
X135157143Y-46874819D01*
X135157143Y-46874819D02*
X135395238Y-46874819D01*
X135395238Y-46874819D02*
X135490476Y-46922438D01*
X135490476Y-46922438D02*
X135538095Y-46970057D01*
X135538095Y-46970057D02*
X135585714Y-47065295D01*
X135585714Y-47065295D02*
X135585714Y-47160533D01*
X135585714Y-47160533D02*
X135538095Y-47303390D01*
X135538095Y-47303390D02*
X134966667Y-47874819D01*
X134966667Y-47874819D02*
X135585714Y-47874819D01*
X172738095Y-113356819D02*
X173309523Y-113356819D01*
X173023809Y-114356819D02*
X173023809Y-113356819D01*
X173642857Y-114356819D02*
X173642857Y-113356819D01*
X173642857Y-113356819D02*
X174023809Y-113356819D01*
X174023809Y-113356819D02*
X174119047Y-113404438D01*
X174119047Y-113404438D02*
X174166666Y-113452057D01*
X174166666Y-113452057D02*
X174214285Y-113547295D01*
X174214285Y-113547295D02*
X174214285Y-113690152D01*
X174214285Y-113690152D02*
X174166666Y-113785390D01*
X174166666Y-113785390D02*
X174119047Y-113833009D01*
X174119047Y-113833009D02*
X174023809Y-113880628D01*
X174023809Y-113880628D02*
X173642857Y-113880628D01*
X174785714Y-113785390D02*
X174690476Y-113737771D01*
X174690476Y-113737771D02*
X174642857Y-113690152D01*
X174642857Y-113690152D02*
X174595238Y-113594914D01*
X174595238Y-113594914D02*
X174595238Y-113547295D01*
X174595238Y-113547295D02*
X174642857Y-113452057D01*
X174642857Y-113452057D02*
X174690476Y-113404438D01*
X174690476Y-113404438D02*
X174785714Y-113356819D01*
X174785714Y-113356819D02*
X174976190Y-113356819D01*
X174976190Y-113356819D02*
X175071428Y-113404438D01*
X175071428Y-113404438D02*
X175119047Y-113452057D01*
X175119047Y-113452057D02*
X175166666Y-113547295D01*
X175166666Y-113547295D02*
X175166666Y-113594914D01*
X175166666Y-113594914D02*
X175119047Y-113690152D01*
X175119047Y-113690152D02*
X175071428Y-113737771D01*
X175071428Y-113737771D02*
X174976190Y-113785390D01*
X174976190Y-113785390D02*
X174785714Y-113785390D01*
X174785714Y-113785390D02*
X174690476Y-113833009D01*
X174690476Y-113833009D02*
X174642857Y-113880628D01*
X174642857Y-113880628D02*
X174595238Y-113975866D01*
X174595238Y-113975866D02*
X174595238Y-114166342D01*
X174595238Y-114166342D02*
X174642857Y-114261580D01*
X174642857Y-114261580D02*
X174690476Y-114309200D01*
X174690476Y-114309200D02*
X174785714Y-114356819D01*
X174785714Y-114356819D02*
X174976190Y-114356819D01*
X174976190Y-114356819D02*
X175071428Y-114309200D01*
X175071428Y-114309200D02*
X175119047Y-114261580D01*
X175119047Y-114261580D02*
X175166666Y-114166342D01*
X175166666Y-114166342D02*
X175166666Y-113975866D01*
X175166666Y-113975866D02*
X175119047Y-113880628D01*
X175119047Y-113880628D02*
X175071428Y-113833009D01*
X175071428Y-113833009D02*
X174976190Y-113785390D01*
X167859580Y-75052857D02*
X167907200Y-75100476D01*
X167907200Y-75100476D02*
X167954819Y-75243333D01*
X167954819Y-75243333D02*
X167954819Y-75338571D01*
X167954819Y-75338571D02*
X167907200Y-75481428D01*
X167907200Y-75481428D02*
X167811961Y-75576666D01*
X167811961Y-75576666D02*
X167716723Y-75624285D01*
X167716723Y-75624285D02*
X167526247Y-75671904D01*
X167526247Y-75671904D02*
X167383390Y-75671904D01*
X167383390Y-75671904D02*
X167192914Y-75624285D01*
X167192914Y-75624285D02*
X167097676Y-75576666D01*
X167097676Y-75576666D02*
X167002438Y-75481428D01*
X167002438Y-75481428D02*
X166954819Y-75338571D01*
X166954819Y-75338571D02*
X166954819Y-75243333D01*
X166954819Y-75243333D02*
X167002438Y-75100476D01*
X167002438Y-75100476D02*
X167050057Y-75052857D01*
X167954819Y-74100476D02*
X167954819Y-74671904D01*
X167954819Y-74386190D02*
X166954819Y-74386190D01*
X166954819Y-74386190D02*
X167097676Y-74481428D01*
X167097676Y-74481428D02*
X167192914Y-74576666D01*
X167192914Y-74576666D02*
X167240533Y-74671904D01*
X167288152Y-73243333D02*
X167954819Y-73243333D01*
X166907200Y-73481428D02*
X167621485Y-73719523D01*
X167621485Y-73719523D02*
X167621485Y-73100476D01*
X170359580Y-75052857D02*
X170407200Y-75100476D01*
X170407200Y-75100476D02*
X170454819Y-75243333D01*
X170454819Y-75243333D02*
X170454819Y-75338571D01*
X170454819Y-75338571D02*
X170407200Y-75481428D01*
X170407200Y-75481428D02*
X170311961Y-75576666D01*
X170311961Y-75576666D02*
X170216723Y-75624285D01*
X170216723Y-75624285D02*
X170026247Y-75671904D01*
X170026247Y-75671904D02*
X169883390Y-75671904D01*
X169883390Y-75671904D02*
X169692914Y-75624285D01*
X169692914Y-75624285D02*
X169597676Y-75576666D01*
X169597676Y-75576666D02*
X169502438Y-75481428D01*
X169502438Y-75481428D02*
X169454819Y-75338571D01*
X169454819Y-75338571D02*
X169454819Y-75243333D01*
X169454819Y-75243333D02*
X169502438Y-75100476D01*
X169502438Y-75100476D02*
X169550057Y-75052857D01*
X170454819Y-74100476D02*
X170454819Y-74671904D01*
X170454819Y-74386190D02*
X169454819Y-74386190D01*
X169454819Y-74386190D02*
X169597676Y-74481428D01*
X169597676Y-74481428D02*
X169692914Y-74576666D01*
X169692914Y-74576666D02*
X169740533Y-74671904D01*
X169454819Y-73195714D02*
X169454819Y-73671904D01*
X169454819Y-73671904D02*
X169931009Y-73719523D01*
X169931009Y-73719523D02*
X169883390Y-73671904D01*
X169883390Y-73671904D02*
X169835771Y-73576666D01*
X169835771Y-73576666D02*
X169835771Y-73338571D01*
X169835771Y-73338571D02*
X169883390Y-73243333D01*
X169883390Y-73243333D02*
X169931009Y-73195714D01*
X169931009Y-73195714D02*
X170026247Y-73148095D01*
X170026247Y-73148095D02*
X170264342Y-73148095D01*
X170264342Y-73148095D02*
X170359580Y-73195714D01*
X170359580Y-73195714D02*
X170407200Y-73243333D01*
X170407200Y-73243333D02*
X170454819Y-73338571D01*
X170454819Y-73338571D02*
X170454819Y-73576666D01*
X170454819Y-73576666D02*
X170407200Y-73671904D01*
X170407200Y-73671904D02*
X170359580Y-73719523D01*
X136132142Y-62429580D02*
X136084523Y-62477200D01*
X136084523Y-62477200D02*
X135941666Y-62524819D01*
X135941666Y-62524819D02*
X135846428Y-62524819D01*
X135846428Y-62524819D02*
X135703571Y-62477200D01*
X135703571Y-62477200D02*
X135608333Y-62381961D01*
X135608333Y-62381961D02*
X135560714Y-62286723D01*
X135560714Y-62286723D02*
X135513095Y-62096247D01*
X135513095Y-62096247D02*
X135513095Y-61953390D01*
X135513095Y-61953390D02*
X135560714Y-61762914D01*
X135560714Y-61762914D02*
X135608333Y-61667676D01*
X135608333Y-61667676D02*
X135703571Y-61572438D01*
X135703571Y-61572438D02*
X135846428Y-61524819D01*
X135846428Y-61524819D02*
X135941666Y-61524819D01*
X135941666Y-61524819D02*
X136084523Y-61572438D01*
X136084523Y-61572438D02*
X136132142Y-61620057D01*
X137084523Y-62524819D02*
X136513095Y-62524819D01*
X136798809Y-62524819D02*
X136798809Y-61524819D01*
X136798809Y-61524819D02*
X136703571Y-61667676D01*
X136703571Y-61667676D02*
X136608333Y-61762914D01*
X136608333Y-61762914D02*
X136513095Y-61810533D01*
X137417857Y-61524819D02*
X138036904Y-61524819D01*
X138036904Y-61524819D02*
X137703571Y-61905771D01*
X137703571Y-61905771D02*
X137846428Y-61905771D01*
X137846428Y-61905771D02*
X137941666Y-61953390D01*
X137941666Y-61953390D02*
X137989285Y-62001009D01*
X137989285Y-62001009D02*
X138036904Y-62096247D01*
X138036904Y-62096247D02*
X138036904Y-62334342D01*
X138036904Y-62334342D02*
X137989285Y-62429580D01*
X137989285Y-62429580D02*
X137941666Y-62477200D01*
X137941666Y-62477200D02*
X137846428Y-62524819D01*
X137846428Y-62524819D02*
X137560714Y-62524819D01*
X137560714Y-62524819D02*
X137465476Y-62477200D01*
X137465476Y-62477200D02*
X137417857Y-62429580D01*
X114086666Y-75564819D02*
X114086666Y-76279104D01*
X114086666Y-76279104D02*
X114039047Y-76421961D01*
X114039047Y-76421961D02*
X113943809Y-76517200D01*
X113943809Y-76517200D02*
X113800952Y-76564819D01*
X113800952Y-76564819D02*
X113705714Y-76564819D01*
X114991428Y-75898152D02*
X114991428Y-76564819D01*
X114753333Y-75517200D02*
X114515238Y-76231485D01*
X114515238Y-76231485D02*
X115134285Y-76231485D01*
X117049405Y-116524819D02*
X117049405Y-115524819D01*
X117049405Y-115524819D02*
X117287500Y-115524819D01*
X117287500Y-115524819D02*
X117430357Y-115572438D01*
X117430357Y-115572438D02*
X117525595Y-115667676D01*
X117525595Y-115667676D02*
X117573214Y-115762914D01*
X117573214Y-115762914D02*
X117620833Y-115953390D01*
X117620833Y-115953390D02*
X117620833Y-116096247D01*
X117620833Y-116096247D02*
X117573214Y-116286723D01*
X117573214Y-116286723D02*
X117525595Y-116381961D01*
X117525595Y-116381961D02*
X117430357Y-116477200D01*
X117430357Y-116477200D02*
X117287500Y-116524819D01*
X117287500Y-116524819D02*
X117049405Y-116524819D01*
X118477976Y-115858152D02*
X118477976Y-116524819D01*
X118239881Y-115477200D02*
X118001786Y-116191485D01*
X118001786Y-116191485D02*
X118620833Y-116191485D01*
X131342261Y-107600057D02*
X131247023Y-107552438D01*
X131247023Y-107552438D02*
X131151785Y-107457200D01*
X131151785Y-107457200D02*
X131008928Y-107314342D01*
X131008928Y-107314342D02*
X130913690Y-107266723D01*
X130913690Y-107266723D02*
X130818452Y-107266723D01*
X130866071Y-107504819D02*
X130770833Y-107457200D01*
X130770833Y-107457200D02*
X130675595Y-107361961D01*
X130675595Y-107361961D02*
X130627976Y-107171485D01*
X130627976Y-107171485D02*
X130627976Y-106838152D01*
X130627976Y-106838152D02*
X130675595Y-106647676D01*
X130675595Y-106647676D02*
X130770833Y-106552438D01*
X130770833Y-106552438D02*
X130866071Y-106504819D01*
X130866071Y-106504819D02*
X131056547Y-106504819D01*
X131056547Y-106504819D02*
X131151785Y-106552438D01*
X131151785Y-106552438D02*
X131247023Y-106647676D01*
X131247023Y-106647676D02*
X131294642Y-106838152D01*
X131294642Y-106838152D02*
X131294642Y-107171485D01*
X131294642Y-107171485D02*
X131247023Y-107361961D01*
X131247023Y-107361961D02*
X131151785Y-107457200D01*
X131151785Y-107457200D02*
X131056547Y-107504819D01*
X131056547Y-107504819D02*
X130866071Y-107504819D01*
X132247023Y-107504819D02*
X131675595Y-107504819D01*
X131961309Y-107504819D02*
X131961309Y-106504819D01*
X131961309Y-106504819D02*
X131866071Y-106647676D01*
X131866071Y-106647676D02*
X131770833Y-106742914D01*
X131770833Y-106742914D02*
X131675595Y-106790533D01*
X172738095Y-99954819D02*
X173309523Y-99954819D01*
X173023809Y-100954819D02*
X173023809Y-99954819D01*
X173642857Y-100954819D02*
X173642857Y-99954819D01*
X173642857Y-99954819D02*
X174023809Y-99954819D01*
X174023809Y-99954819D02*
X174119047Y-100002438D01*
X174119047Y-100002438D02*
X174166666Y-100050057D01*
X174166666Y-100050057D02*
X174214285Y-100145295D01*
X174214285Y-100145295D02*
X174214285Y-100288152D01*
X174214285Y-100288152D02*
X174166666Y-100383390D01*
X174166666Y-100383390D02*
X174119047Y-100431009D01*
X174119047Y-100431009D02*
X174023809Y-100478628D01*
X174023809Y-100478628D02*
X173642857Y-100478628D01*
X175119047Y-99954819D02*
X174642857Y-99954819D01*
X174642857Y-99954819D02*
X174595238Y-100431009D01*
X174595238Y-100431009D02*
X174642857Y-100383390D01*
X174642857Y-100383390D02*
X174738095Y-100335771D01*
X174738095Y-100335771D02*
X174976190Y-100335771D01*
X174976190Y-100335771D02*
X175071428Y-100383390D01*
X175071428Y-100383390D02*
X175119047Y-100431009D01*
X175119047Y-100431009D02*
X175166666Y-100526247D01*
X175166666Y-100526247D02*
X175166666Y-100764342D01*
X175166666Y-100764342D02*
X175119047Y-100859580D01*
X175119047Y-100859580D02*
X175071428Y-100907200D01*
X175071428Y-100907200D02*
X174976190Y-100954819D01*
X174976190Y-100954819D02*
X174738095Y-100954819D01*
X174738095Y-100954819D02*
X174642857Y-100907200D01*
X174642857Y-100907200D02*
X174595238Y-100859580D01*
X107166666Y-42454819D02*
X107166666Y-43169104D01*
X107166666Y-43169104D02*
X107119047Y-43311961D01*
X107119047Y-43311961D02*
X107023809Y-43407200D01*
X107023809Y-43407200D02*
X106880952Y-43454819D01*
X106880952Y-43454819D02*
X106785714Y-43454819D01*
X107595238Y-42550057D02*
X107642857Y-42502438D01*
X107642857Y-42502438D02*
X107738095Y-42454819D01*
X107738095Y-42454819D02*
X107976190Y-42454819D01*
X107976190Y-42454819D02*
X108071428Y-42502438D01*
X108071428Y-42502438D02*
X108119047Y-42550057D01*
X108119047Y-42550057D02*
X108166666Y-42645295D01*
X108166666Y-42645295D02*
X108166666Y-42740533D01*
X108166666Y-42740533D02*
X108119047Y-42883390D01*
X108119047Y-42883390D02*
X107547619Y-43454819D01*
X107547619Y-43454819D02*
X108166666Y-43454819D01*
%TO.C,R13*%
D11*
X166437742Y-91022500D02*
X166912258Y-91022500D01*
X166437742Y-89977500D02*
X166912258Y-89977500D01*
%TO.C,J3*%
X90620000Y-86120000D02*
X92000000Y-86120000D01*
X90620000Y-87500000D02*
X90620000Y-86120000D01*
X90620000Y-88770000D02*
X90620000Y-91420000D01*
X90620000Y-88770000D02*
X93380000Y-88770000D01*
X90620000Y-91420000D02*
X93380000Y-91420000D01*
X93380000Y-88770000D02*
X93380000Y-91420000D01*
%TO.C,TP10*%
X179950000Y-111000000D02*
G75*
G02*
X178050000Y-111000000I-950000J0D01*
G01*
X178050000Y-111000000D02*
G75*
G02*
X179950000Y-111000000I950000J0D01*
G01*
%TO.C,TP11*%
X179950000Y-114550000D02*
G75*
G02*
X178050000Y-114550000I-950000J0D01*
G01*
X178050000Y-114550000D02*
G75*
G02*
X179950000Y-114550000I950000J0D01*
G01*
%TO.C,C9*%
X147359420Y-81990000D02*
X147640580Y-81990000D01*
X147359420Y-83010000D02*
X147640580Y-83010000D01*
%TO.C,J7*%
X176120000Y-76080000D02*
X177500000Y-76080000D01*
X176120000Y-77460000D02*
X176120000Y-76080000D01*
X176120000Y-78730000D02*
X176120000Y-81380000D01*
X176120000Y-78730000D02*
X178880000Y-78730000D01*
X176120000Y-81380000D02*
X178880000Y-81380000D01*
X178880000Y-78730000D02*
X178880000Y-81380000D01*
%TO.C,U3*%
X87190000Y-79880000D02*
X90410000Y-79880000D01*
X87190000Y-80080000D02*
X87190000Y-79880000D01*
X87190000Y-83100000D02*
X87190000Y-82900000D01*
X90410000Y-79880000D02*
X90410000Y-80080000D01*
X90410000Y-82900000D02*
X90410000Y-83100000D01*
X90410000Y-83100000D02*
X87190000Y-83100000D01*
X86640000Y-80080000D02*
X86400000Y-79750000D01*
X86880000Y-79750000D01*
X86640000Y-80080000D01*
G36*
X86640000Y-80080000D02*
G01*
X86400000Y-79750000D01*
X86880000Y-79750000D01*
X86640000Y-80080000D01*
G37*
%TO.C,J1*%
X86030000Y-86120000D02*
X87410000Y-86120000D01*
X86030000Y-87500000D02*
X86030000Y-86120000D01*
X86030000Y-88770000D02*
X86030000Y-91420000D01*
X86030000Y-88770000D02*
X88790000Y-88770000D01*
X86030000Y-91420000D02*
X88790000Y-91420000D01*
X88790000Y-88770000D02*
X88790000Y-91420000D01*
%TO.C,R4*%
X160762742Y-51967500D02*
X161237258Y-51967500D01*
X160762742Y-53012500D02*
X161237258Y-53012500D01*
%TO.C,R15*%
X101762742Y-111987500D02*
X102237258Y-111987500D01*
X101762742Y-113032500D02*
X102237258Y-113032500D01*
%TO.C,TP3*%
X168450000Y-111450000D02*
G75*
G02*
X166550000Y-111450000I-950000J0D01*
G01*
X166550000Y-111450000D02*
G75*
G02*
X168450000Y-111450000I950000J0D01*
G01*
%TO.C,C12*%
X101859420Y-109490000D02*
X102140580Y-109490000D01*
X101859420Y-110510000D02*
X102140580Y-110510000D01*
%TO.C,TP13*%
X122950000Y-63500000D02*
G75*
G02*
X121050000Y-63500000I-950000J0D01*
G01*
X121050000Y-63500000D02*
G75*
G02*
X122950000Y-63500000I950000J0D01*
G01*
%TO.C,SW1*%
X88400000Y-63350000D02*
X88400000Y-65350000D01*
X89450000Y-62050000D02*
X89900000Y-61600000D01*
X89450000Y-66650000D02*
X89900000Y-67100000D01*
X89900000Y-61600000D02*
X92400000Y-61600000D01*
X89900000Y-67100000D02*
X92400000Y-67100000D01*
X92850000Y-62050000D02*
X92400000Y-61600000D01*
X92850000Y-66650000D02*
X92400000Y-67100000D01*
X93900000Y-63350000D02*
X93900000Y-65350000D01*
%TO.C,BZ1*%
X145800000Y-114000000D02*
G75*
G02*
X133600000Y-114000000I-6100000J0D01*
G01*
X133600000Y-114000000D02*
G75*
G02*
X145800000Y-114000000I6100000J0D01*
G01*
%TO.C,C8*%
X132589420Y-76150000D02*
X132870580Y-76150000D01*
X132589420Y-77170000D02*
X132870580Y-77170000D01*
%TO.C,F1*%
X121435436Y-46040000D02*
X122639564Y-46040000D01*
X121435436Y-47860000D02*
X122639564Y-47860000D01*
%TO.C,D5*%
X120802500Y-116765000D02*
X120802500Y-118235000D01*
X120802500Y-118235000D02*
X123087500Y-118235000D01*
X123087500Y-116765000D02*
X120802500Y-116765000D01*
%TO.C,TP15*%
X161550000Y-118920000D02*
G75*
G02*
X159650000Y-118920000I-950000J0D01*
G01*
X159650000Y-118920000D02*
G75*
G02*
X161550000Y-118920000I950000J0D01*
G01*
%TO.C,R20*%
X112587742Y-111987500D02*
X113062258Y-111987500D01*
X112587742Y-113032500D02*
X113062258Y-113032500D01*
%TO.C,R1*%
X99437742Y-49967500D02*
X99912258Y-49967500D01*
X99437742Y-51012500D02*
X99912258Y-51012500D01*
%TO.C,C3*%
X140359420Y-47490000D02*
X140640580Y-47490000D01*
X140359420Y-48510000D02*
X140640580Y-48510000D01*
%TO.C,R10*%
X153937742Y-87977500D02*
X154412258Y-87977500D01*
X153937742Y-89022500D02*
X154412258Y-89022500D01*
%TO.C,R17*%
X107262742Y-112477500D02*
X107737258Y-112477500D01*
X107262742Y-113522500D02*
X107737258Y-113522500D01*
%TO.C,R19*%
X119437742Y-113477500D02*
X119912258Y-113477500D01*
X119437742Y-114522500D02*
X119912258Y-114522500D01*
%TO.C,TP6*%
X171950000Y-106550000D02*
G75*
G02*
X170050000Y-106550000I-950000J0D01*
G01*
X170050000Y-106550000D02*
G75*
G02*
X171950000Y-106550000I950000J0D01*
G01*
%TO.C,C1*%
X136134420Y-45990000D02*
X136415580Y-45990000D01*
X136134420Y-47010000D02*
X136415580Y-47010000D01*
%TO.C,R14*%
X166437742Y-92487500D02*
X166912258Y-92487500D01*
X166437742Y-93532500D02*
X166912258Y-93532500D01*
%TO.C,R2*%
X99437742Y-52477500D02*
X99912258Y-52477500D01*
X99437742Y-53522500D02*
X99912258Y-53522500D01*
%TO.C,C5*%
X162084420Y-63990000D02*
X162365580Y-63990000D01*
X162084420Y-65010000D02*
X162365580Y-65010000D01*
%TO.C,C10*%
X173359420Y-89990000D02*
X173640580Y-89990000D01*
X173359420Y-91010000D02*
X173640580Y-91010000D01*
%TO.C,J5*%
X143100000Y-84975000D02*
X150900000Y-84975000D01*
X143100000Y-91025000D02*
X143100000Y-84975000D01*
X144450000Y-89915000D02*
X149530000Y-89915000D01*
X144450000Y-90925000D02*
X144450000Y-89915000D01*
X149530000Y-89915000D02*
X149530000Y-90925000D01*
X150900000Y-84975000D02*
X150900000Y-91025000D01*
X150900000Y-91025000D02*
X143100000Y-91025000D01*
%TO.C,SW2*%
X98900000Y-63900000D02*
X98900000Y-65900000D01*
X99950000Y-62600000D02*
X100400000Y-62150000D01*
X99950000Y-67200000D02*
X100400000Y-67650000D01*
X100400000Y-62150000D02*
X102900000Y-62150000D01*
X100400000Y-67650000D02*
X102900000Y-67650000D01*
X103350000Y-62600000D02*
X102900000Y-62150000D01*
X103350000Y-67200000D02*
X102900000Y-67650000D01*
X104400000Y-63900000D02*
X104400000Y-65900000D01*
%TO.C,J8*%
X131120000Y-61215000D02*
X132500000Y-61215000D01*
X131120000Y-62595000D02*
X131120000Y-61215000D01*
X131120000Y-63865000D02*
X131120000Y-66515000D01*
X131120000Y-63865000D02*
X133880000Y-63865000D01*
X131120000Y-66515000D02*
X133880000Y-66515000D01*
X133880000Y-63865000D02*
X133880000Y-66515000D01*
%TO.C,R11*%
X153937742Y-90487500D02*
X154412258Y-90487500D01*
X153937742Y-91532500D02*
X154412258Y-91532500D01*
%TO.C,U1*%
X131727500Y-45890000D02*
X133547500Y-45890000D01*
X131727500Y-45940000D02*
X131727500Y-45890000D01*
X131727500Y-49010000D02*
X131727500Y-48960000D01*
X133547500Y-45890000D02*
X133547500Y-45940000D01*
X133547500Y-47060000D02*
X133547500Y-47840000D01*
X133547500Y-48960000D02*
X133547500Y-49010000D01*
X133547500Y-49010000D02*
X131727500Y-49010000D01*
X131187500Y-45940000D02*
X130947500Y-45610000D01*
X131427500Y-45610000D01*
X131187500Y-45940000D01*
G36*
X131187500Y-45940000D02*
G01*
X130947500Y-45610000D01*
X131427500Y-45610000D01*
X131187500Y-45940000D01*
G37*
%TO.C,R7*%
X96587742Y-76477500D02*
X97062258Y-76477500D01*
X96587742Y-77522500D02*
X97062258Y-77522500D01*
%TO.C,D1*%
X105727500Y-115765000D02*
X105727500Y-117235000D01*
X105727500Y-117235000D02*
X108012500Y-117235000D01*
X108012500Y-115765000D02*
X105727500Y-115765000D01*
%TO.C,R8*%
X86912742Y-77477500D02*
X87387258Y-77477500D01*
X86912742Y-78522500D02*
X87387258Y-78522500D01*
%TO.C,U7*%
X168415000Y-76075000D02*
X172535000Y-76075000D01*
X168415000Y-76170000D02*
X168415000Y-76075000D01*
X168415000Y-81195000D02*
X168415000Y-81100000D01*
X172535000Y-76075000D02*
X172535000Y-76170000D01*
X172535000Y-81100000D02*
X172535000Y-81195000D01*
X172535000Y-81195000D02*
X168415000Y-81195000D01*
X167875000Y-76165000D02*
X167635000Y-75835000D01*
X168115000Y-75835000D01*
X167875000Y-76165000D01*
G36*
X167875000Y-76165000D02*
G01*
X167635000Y-75835000D01*
X168115000Y-75835000D01*
X167875000Y-76165000D01*
G37*
%TO.C,J6*%
X87430000Y-105070000D02*
X87430000Y-109520000D01*
X87430000Y-110920000D02*
X87430000Y-113220000D01*
X87430000Y-114620000D02*
X87430000Y-115340000D01*
X87430000Y-115340000D02*
X90110000Y-115340000D01*
X88910000Y-103700000D02*
X89770000Y-103700000D01*
X92410000Y-115340000D02*
X96080000Y-115340000D01*
X98380000Y-115340000D02*
X99610000Y-115340000D01*
X99610000Y-115340000D02*
X99610000Y-105520000D01*
%TO.C,TP1*%
X147950000Y-54500000D02*
G75*
G02*
X146050000Y-54500000I-950000J0D01*
G01*
X146050000Y-54500000D02*
G75*
G02*
X147950000Y-54500000I950000J0D01*
G01*
%TO.C,TP7*%
X174950000Y-112000000D02*
G75*
G02*
X173050000Y-112000000I-950000J0D01*
G01*
X173050000Y-112000000D02*
G75*
G02*
X174950000Y-112000000I950000J0D01*
G01*
%TO.C,R16*%
X160437742Y-77612500D02*
X160912258Y-77612500D01*
X160437742Y-78657500D02*
X160912258Y-78657500D01*
%TO.C,TP4*%
X168450000Y-115000000D02*
G75*
G02*
X166550000Y-115000000I-950000J0D01*
G01*
X166550000Y-115000000D02*
G75*
G02*
X168450000Y-115000000I950000J0D01*
G01*
%TO.C,D3*%
X139677500Y-85890000D02*
X141197500Y-85890000D01*
X139677500Y-85940000D02*
X139677500Y-85890000D01*
X139677500Y-87840000D02*
X139677500Y-87060000D01*
X139677500Y-89010000D02*
X139677500Y-88960000D01*
X141197500Y-85890000D02*
X141197500Y-86890000D01*
X141197500Y-88010000D02*
X141197500Y-89010000D01*
X141197500Y-89010000D02*
X139677500Y-89010000D01*
X139137500Y-87070000D02*
X139377500Y-87400000D01*
X138897500Y-87400000D01*
X139137500Y-87070000D01*
G36*
X139377500Y-87400000D02*
G01*
X138897500Y-87400000D01*
X139137500Y-87070000D01*
X139377500Y-87400000D01*
G37*
%TO.C,U2*%
X165100000Y-43100000D02*
X165100000Y-49300000D01*
X165100000Y-43100000D02*
X183500000Y-43100000D01*
X165100000Y-67950000D02*
X165100000Y-68950000D01*
X165100000Y-68950000D02*
X166600000Y-68950000D01*
X183500000Y-43100000D02*
X183500000Y-49300000D01*
X183500000Y-68950000D02*
X182000000Y-68950000D01*
X183500000Y-68950000D02*
X183500000Y-67950000D01*
X165100000Y-49975000D02*
X164600000Y-49975000D01*
X165100000Y-49475000D01*
X165100000Y-49975000D01*
G36*
X165100000Y-49975000D02*
G01*
X164600000Y-49975000D01*
X165100000Y-49475000D01*
X165100000Y-49975000D01*
G37*
%TO.C,R5*%
X162762742Y-54477500D02*
X163237258Y-54477500D01*
X162762742Y-55522500D02*
X163237258Y-55522500D01*
%TO.C,R12*%
X166437742Y-87467500D02*
X166912258Y-87467500D01*
X166437742Y-88512500D02*
X166912258Y-88512500D01*
%TO.C,D2*%
X111090000Y-116765000D02*
X111090000Y-118235000D01*
X111090000Y-118235000D02*
X113375000Y-118235000D01*
X113375000Y-116765000D02*
X111090000Y-116765000D01*
%TO.C,TP9*%
X171950000Y-120000000D02*
G75*
G02*
X170050000Y-120000000I-950000J0D01*
G01*
X170050000Y-120000000D02*
G75*
G02*
X171950000Y-120000000I950000J0D01*
G01*
%TO.C,TP16*%
X152450000Y-120000000D02*
G75*
G02*
X150550000Y-120000000I-950000J0D01*
G01*
X150550000Y-120000000D02*
G75*
G02*
X152450000Y-120000000I950000J0D01*
G01*
%TO.C,C7*%
X90584420Y-76990000D02*
X90865580Y-76990000D01*
X90584420Y-78010000D02*
X90865580Y-78010000D01*
%TO.C,D6*%
X125515000Y-116265000D02*
X125515000Y-117735000D01*
X125515000Y-117735000D02*
X127800000Y-117735000D01*
X127800000Y-116265000D02*
X125515000Y-116265000D01*
%TO.C,C11*%
X101859420Y-106980000D02*
X102140580Y-106980000D01*
X101859420Y-108000000D02*
X102140580Y-108000000D01*
%TO.C,TP2*%
X153450000Y-114550000D02*
G75*
G02*
X151550000Y-114550000I-950000J0D01*
G01*
X151550000Y-114550000D02*
G75*
G02*
X153450000Y-114550000I950000J0D01*
G01*
%TO.C,RS1*%
X93822936Y-79790000D02*
X98177064Y-79790000D01*
X93822936Y-83210000D02*
X98177064Y-83210000D01*
%TO.C,R18*%
X126937742Y-113477500D02*
X127412258Y-113477500D01*
X126937742Y-114522500D02*
X127412258Y-114522500D01*
%TO.C,U4*%
X122740000Y-76115000D02*
X128260000Y-76115000D01*
X122740000Y-76440000D02*
X122740000Y-76115000D01*
X122740000Y-83535000D02*
X122740000Y-83210000D01*
X128260000Y-76115000D02*
X128260000Y-76440000D01*
X128260000Y-83210000D02*
X128260000Y-83535000D01*
X128260000Y-83535000D02*
X122740000Y-83535000D01*
X122000000Y-76435000D02*
X121660000Y-75965000D01*
X122340000Y-75965000D01*
X122000000Y-76435000D01*
G36*
X122000000Y-76435000D02*
G01*
X121660000Y-75965000D01*
X122340000Y-75965000D01*
X122000000Y-76435000D01*
G37*
%TO.C,R9*%
X131762742Y-81477500D02*
X132237258Y-81477500D01*
X131762742Y-82522500D02*
X132237258Y-82522500D01*
%TO.C,U5*%
X168390000Y-89115000D02*
X169065000Y-89115000D01*
X168390000Y-89290000D02*
X168390000Y-89115000D01*
X168390000Y-92335000D02*
X168390000Y-92160000D01*
X169065000Y-92335000D02*
X168390000Y-92335000D01*
X170935000Y-89115000D02*
X171610000Y-89115000D01*
X171610000Y-89115000D02*
X171610000Y-89290000D01*
X171610000Y-92160000D02*
X171610000Y-92335000D01*
X171610000Y-92335000D02*
X170935000Y-92335000D01*
X168240000Y-89725000D02*
X167910000Y-89965000D01*
X167910000Y-89485000D01*
X168240000Y-89725000D01*
G36*
X168240000Y-89725000D02*
G01*
X167910000Y-89965000D01*
X167910000Y-89485000D01*
X168240000Y-89725000D01*
G37*
%TO.C,R3*%
X99437742Y-54987500D02*
X99912258Y-54987500D01*
X99437742Y-56032500D02*
X99912258Y-56032500D01*
%TO.C,C4*%
X140359420Y-50000000D02*
X140640580Y-50000000D01*
X140359420Y-51020000D02*
X140640580Y-51020000D01*
%TO.C,TP12*%
X161450000Y-113500000D02*
G75*
G02*
X159550000Y-113500000I-950000J0D01*
G01*
X159550000Y-113500000D02*
G75*
G02*
X161450000Y-113500000I950000J0D01*
G01*
%TO.C,C6*%
X162359420Y-59990000D02*
X162640580Y-59990000D01*
X162359420Y-61010000D02*
X162640580Y-61010000D01*
%TO.C,U6*%
X124965000Y-60805000D02*
X129085000Y-60805000D01*
X124965000Y-60900000D02*
X124965000Y-60805000D01*
X124965000Y-65925000D02*
X124965000Y-65830000D01*
X129085000Y-60805000D02*
X129085000Y-60900000D01*
X129085000Y-65830000D02*
X129085000Y-65925000D01*
X129085000Y-65925000D02*
X124965000Y-65925000D01*
X124425000Y-60895000D02*
X124185000Y-60565000D01*
X124665000Y-60565000D01*
X124425000Y-60895000D01*
G36*
X124425000Y-60895000D02*
G01*
X124185000Y-60565000D01*
X124665000Y-60565000D01*
X124425000Y-60895000D01*
G37*
%TO.C,TP14*%
X161450000Y-108500000D02*
G75*
G02*
X159550000Y-108500000I-950000J0D01*
G01*
X159550000Y-108500000D02*
G75*
G02*
X161450000Y-108500000I950000J0D01*
G01*
%TO.C,R6*%
X162762742Y-56987500D02*
X163237258Y-56987500D01*
X162762742Y-58032500D02*
X163237258Y-58032500D01*
%TO.C,C2*%
X136159420Y-48990000D02*
X136440580Y-48990000D01*
X136159420Y-50010000D02*
X136440580Y-50010000D01*
%TO.C,TP8*%
X174950000Y-115550000D02*
G75*
G02*
X173050000Y-115550000I-950000J0D01*
G01*
X173050000Y-115550000D02*
G75*
G02*
X174950000Y-115550000I950000J0D01*
G01*
%TO.C,C14*%
X166990000Y-74550580D02*
X166990000Y-74269420D01*
X168010000Y-74550580D02*
X168010000Y-74269420D01*
%TO.C,C15*%
X170490000Y-74050580D02*
X170490000Y-73769420D01*
X171510000Y-74050580D02*
X171510000Y-73769420D01*
%TO.C,C13*%
X136634420Y-62990000D02*
X136915580Y-62990000D01*
X136634420Y-64010000D02*
X136915580Y-64010000D01*
%TO.C,J4*%
X109070000Y-77060000D02*
X114820000Y-77060000D01*
X109070000Y-83060000D02*
X109070000Y-77060000D01*
X110420000Y-81950000D02*
X115500000Y-81950000D01*
X110420000Y-82960000D02*
X110420000Y-81950000D01*
X115500000Y-81950000D02*
X115500000Y-82960000D01*
X116170000Y-77110000D02*
X119370000Y-77110000D01*
X119370000Y-77110000D02*
X119370000Y-83060000D01*
X119370000Y-83060000D02*
X109070000Y-83060000D01*
%TO.C,D4*%
X116302500Y-116765000D02*
X116302500Y-118235000D01*
X116302500Y-118235000D02*
X118587500Y-118235000D01*
X118587500Y-116765000D02*
X116302500Y-116765000D01*
%TO.C,Q1*%
X130677500Y-107890000D02*
X132197500Y-107890000D01*
X130677500Y-107940000D02*
X130677500Y-107890000D01*
X130677500Y-109840000D02*
X130677500Y-109060000D01*
X130677500Y-111010000D02*
X130677500Y-110960000D01*
X132197500Y-107890000D02*
X132197500Y-108890000D01*
X132197500Y-110010000D02*
X132197500Y-111010000D01*
X132197500Y-111010000D02*
X130677500Y-111010000D01*
X130137500Y-109070000D02*
X130377500Y-109400000D01*
X129897500Y-109400000D01*
X130137500Y-109070000D01*
G36*
X130377500Y-109400000D02*
G01*
X129897500Y-109400000D01*
X130137500Y-109070000D01*
X130377500Y-109400000D01*
G37*
%TO.C,TP5*%
X171950000Y-103000000D02*
G75*
G02*
X170050000Y-103000000I-950000J0D01*
G01*
X170050000Y-103000000D02*
G75*
G02*
X171950000Y-103000000I950000J0D01*
G01*
%TO.C,J2*%
X102830000Y-48400000D02*
X102830000Y-46700000D01*
X112170000Y-48400000D02*
X112170000Y-46700000D01*
%TD*%
%LPC*%
D12*
%TO.C,R13*%
X167500000Y-90500000D03*
X165850000Y-90500000D03*
%TD*%
D13*
%TO.C,J3*%
X92000000Y-87500000D03*
D14*
X92000000Y-90040000D03*
%TD*%
D15*
%TO.C,TP10*%
X179000000Y-111000000D03*
%TD*%
%TO.C,TP11*%
X179000000Y-114550000D03*
%TD*%
D16*
%TO.C,C9*%
X146725000Y-82500000D03*
X148275000Y-82500000D03*
%TD*%
D13*
%TO.C,J7*%
X177500000Y-77460000D03*
D14*
X177500000Y-80000000D03*
%TD*%
D17*
%TO.C,U3*%
X86650000Y-80490000D03*
X86650000Y-80990000D03*
X86650000Y-81490000D03*
X86650000Y-81990000D03*
X86650000Y-82490000D03*
X90950000Y-82490000D03*
X90950000Y-81990000D03*
X90950000Y-81490000D03*
X90950000Y-80990000D03*
X90950000Y-80490000D03*
%TD*%
D13*
%TO.C,J1*%
X87410000Y-87500000D03*
D18*
X87410000Y-90040000D03*
%TD*%
D12*
%TO.C,R4*%
X160175000Y-52490000D03*
X161825000Y-52490000D03*
%TD*%
%TO.C,R15*%
X101175000Y-112510000D03*
X102825000Y-112510000D03*
%TD*%
D15*
%TO.C,TP3*%
X167500000Y-111450000D03*
%TD*%
D16*
%TO.C,C12*%
X101225000Y-110000000D03*
X102775000Y-110000000D03*
%TD*%
D15*
%TO.C,TP13*%
X122000000Y-63500000D03*
%TD*%
D19*
%TO.C,SW1*%
X88000000Y-62450000D03*
X94300000Y-62450000D03*
X88000000Y-66250000D03*
X94300000Y-66250000D03*
%TD*%
D20*
%TO.C,BZ1*%
X135900000Y-114000000D03*
D21*
X143500000Y-114000000D03*
%TD*%
D16*
%TO.C,C8*%
X131955000Y-76660000D03*
X133505000Y-76660000D03*
%TD*%
D22*
%TO.C,F1*%
X120637500Y-46950000D03*
X123437500Y-46950000D03*
%TD*%
D23*
%TO.C,D5*%
X121500000Y-117500000D03*
X123075000Y-117500000D03*
%TD*%
D15*
%TO.C,TP15*%
X160600000Y-118920000D03*
%TD*%
D12*
%TO.C,R20*%
X112000000Y-112510000D03*
X113650000Y-112510000D03*
%TD*%
%TO.C,R1*%
X98850000Y-50490000D03*
X100500000Y-50490000D03*
%TD*%
D16*
%TO.C,C3*%
X139725000Y-48000000D03*
X141275000Y-48000000D03*
%TD*%
D12*
%TO.C,R10*%
X153350000Y-88500000D03*
X155000000Y-88500000D03*
%TD*%
%TO.C,R17*%
X106675000Y-113000000D03*
X108325000Y-113000000D03*
%TD*%
%TO.C,R19*%
X118850000Y-114000000D03*
X120500000Y-114000000D03*
%TD*%
D15*
%TO.C,TP6*%
X171000000Y-106550000D03*
%TD*%
D16*
%TO.C,C1*%
X135500000Y-46500000D03*
X137050000Y-46500000D03*
%TD*%
D12*
%TO.C,R14*%
X165850000Y-93010000D03*
X167500000Y-93010000D03*
%TD*%
%TO.C,R2*%
X98850000Y-53000000D03*
X100500000Y-53000000D03*
%TD*%
D16*
%TO.C,C5*%
X161450000Y-64500000D03*
X163000000Y-64500000D03*
%TD*%
%TO.C,C10*%
X172725000Y-90500000D03*
X174275000Y-90500000D03*
%TD*%
D24*
%TO.C,J5*%
X144450000Y-87625000D03*
D25*
X146990000Y-87625000D03*
X149530000Y-87625000D03*
%TD*%
D19*
%TO.C,SW2*%
X98500000Y-63000000D03*
X104800000Y-63000000D03*
X98500000Y-66800000D03*
X104800000Y-66800000D03*
%TD*%
D13*
%TO.C,J8*%
X132500000Y-62595000D03*
D14*
X132500000Y-65135000D03*
%TD*%
D12*
%TO.C,R11*%
X153350000Y-91010000D03*
X155000000Y-91010000D03*
%TD*%
D26*
%TO.C,U1*%
X131500000Y-46500000D03*
X131500000Y-47450000D03*
X131500000Y-48400000D03*
X133775000Y-48400000D03*
X133775000Y-46500000D03*
%TD*%
D12*
%TO.C,R7*%
X96000000Y-77000000D03*
X97650000Y-77000000D03*
%TD*%
D23*
%TO.C,D1*%
X106425000Y-116500000D03*
X108000000Y-116500000D03*
%TD*%
D12*
%TO.C,R8*%
X86325000Y-78000000D03*
X87975000Y-78000000D03*
%TD*%
D27*
%TO.C,U7*%
X168000000Y-76730000D03*
X168000000Y-78000000D03*
X168000000Y-79270000D03*
X168000000Y-80540000D03*
X172950000Y-80540000D03*
X172950000Y-79270000D03*
X172950000Y-78000000D03*
X172950000Y-76730000D03*
%TD*%
D28*
%TO.C,J6*%
X90395000Y-104070000D03*
X91495000Y-104070000D03*
X92595000Y-104070000D03*
X93695000Y-104070000D03*
X94795000Y-104070000D03*
X95895000Y-104070000D03*
X96995000Y-104070000D03*
D29*
X98045000Y-104070000D03*
D30*
X87760000Y-110220000D03*
X87760000Y-113920000D03*
D31*
X87935000Y-104195000D03*
D32*
X91260000Y-114895000D03*
X97230000Y-114895000D03*
D33*
X99255000Y-104420000D03*
%TD*%
D15*
%TO.C,TP1*%
X147000000Y-54500000D03*
%TD*%
%TO.C,TP7*%
X174000000Y-112000000D03*
%TD*%
D12*
%TO.C,R16*%
X159850000Y-78135000D03*
X161500000Y-78135000D03*
%TD*%
D15*
%TO.C,TP4*%
X167500000Y-115000000D03*
%TD*%
D34*
%TO.C,D3*%
X139500000Y-86500000D03*
X139500000Y-88400000D03*
X141375000Y-87450000D03*
%TD*%
D35*
%TO.C,U2*%
X165550000Y-50740000D03*
X165550000Y-52010000D03*
X165550000Y-53280000D03*
X165550000Y-54550000D03*
X165550000Y-55820000D03*
X165550000Y-57090000D03*
X165550000Y-58360000D03*
X165550000Y-59630000D03*
X165550000Y-60900000D03*
X165550000Y-62170000D03*
X165550000Y-63440000D03*
X165550000Y-64710000D03*
X165550000Y-65980000D03*
X165550000Y-67250000D03*
D36*
X167315000Y-68500000D03*
X168585000Y-68500000D03*
X169855000Y-68500000D03*
X171125000Y-68500000D03*
X172395000Y-68500000D03*
X173665000Y-68500000D03*
X174935000Y-68500000D03*
X176205000Y-68500000D03*
X177475000Y-68500000D03*
X178745000Y-68500000D03*
X180015000Y-68500000D03*
X181285000Y-68500000D03*
D35*
X183050000Y-67250000D03*
X183050000Y-65980000D03*
X183050000Y-64710000D03*
X183050000Y-63440000D03*
X183050000Y-62170000D03*
X183050000Y-60900000D03*
X183050000Y-59630000D03*
X183050000Y-58360000D03*
X183050000Y-57090000D03*
X183050000Y-55820000D03*
X183050000Y-54550000D03*
X183050000Y-53280000D03*
X183050000Y-52010000D03*
X183050000Y-50740000D03*
D37*
X171400000Y-57760000D03*
X171400000Y-59160000D03*
X172100000Y-57060000D03*
X172100000Y-58460000D03*
X172100000Y-59860000D03*
X172800000Y-57760000D03*
D38*
X172800000Y-58460000D03*
D37*
X172800000Y-59160000D03*
X173500000Y-57060000D03*
X173500000Y-58460000D03*
X173500000Y-59860000D03*
X174200000Y-57760000D03*
X174200000Y-59160000D03*
%TD*%
D12*
%TO.C,R5*%
X162175000Y-55000000D03*
X163825000Y-55000000D03*
%TD*%
%TO.C,R12*%
X165850000Y-87990000D03*
X167500000Y-87990000D03*
%TD*%
D23*
%TO.C,D2*%
X111787500Y-117500000D03*
X113362500Y-117500000D03*
%TD*%
D15*
%TO.C,TP9*%
X171000000Y-120000000D03*
%TD*%
%TO.C,TP16*%
X151500000Y-120000000D03*
%TD*%
D16*
%TO.C,C7*%
X89950000Y-77500000D03*
X91500000Y-77500000D03*
%TD*%
D23*
%TO.C,D6*%
X126212500Y-117000000D03*
X127787500Y-117000000D03*
%TD*%
D16*
%TO.C,C11*%
X101225000Y-107490000D03*
X102775000Y-107490000D03*
%TD*%
D15*
%TO.C,TP2*%
X152500000Y-114550000D03*
%TD*%
D39*
%TO.C,RS1*%
X93037500Y-81500000D03*
X98962500Y-81500000D03*
%TD*%
D12*
%TO.C,R18*%
X126350000Y-114000000D03*
X128000000Y-114000000D03*
%TD*%
D40*
%TO.C,U4*%
X122000000Y-76900000D03*
X122000000Y-77550000D03*
X122000000Y-78200000D03*
X122000000Y-78850000D03*
X122000000Y-79500000D03*
X122000000Y-80150000D03*
X122000000Y-80800000D03*
X122000000Y-81450000D03*
X122000000Y-82100000D03*
X122000000Y-82750000D03*
X129000000Y-82750000D03*
X129000000Y-82100000D03*
X129000000Y-81450000D03*
X129000000Y-80800000D03*
X129000000Y-80150000D03*
X129000000Y-79500000D03*
X129000000Y-78850000D03*
X129000000Y-78200000D03*
X129000000Y-77550000D03*
X129000000Y-76900000D03*
%TD*%
D12*
%TO.C,R9*%
X131175000Y-82000000D03*
X132825000Y-82000000D03*
%TD*%
D41*
%TO.C,U5*%
X168775000Y-89725000D03*
X168775000Y-90225000D03*
X168775000Y-90725000D03*
X168775000Y-91225000D03*
X168775000Y-91725000D03*
D42*
X169500000Y-91950000D03*
X170000000Y-91950000D03*
X170500000Y-91950000D03*
D41*
X171225000Y-91725000D03*
X171225000Y-91225000D03*
X171225000Y-90725000D03*
X171225000Y-90225000D03*
X171225000Y-89725000D03*
D42*
X170500000Y-89500000D03*
X170000000Y-89500000D03*
X169500000Y-89500000D03*
%TD*%
D12*
%TO.C,R3*%
X98850000Y-55510000D03*
X100500000Y-55510000D03*
%TD*%
D16*
%TO.C,C4*%
X139725000Y-50510000D03*
X141275000Y-50510000D03*
%TD*%
D15*
%TO.C,TP12*%
X160500000Y-113500000D03*
%TD*%
D16*
%TO.C,C6*%
X161725000Y-60500000D03*
X163275000Y-60500000D03*
%TD*%
D27*
%TO.C,U6*%
X124550000Y-61460000D03*
X124550000Y-62730000D03*
X124550000Y-64000000D03*
X124550000Y-65270000D03*
X129500000Y-65270000D03*
X129500000Y-64000000D03*
X129500000Y-62730000D03*
X129500000Y-61460000D03*
%TD*%
D15*
%TO.C,TP14*%
X160500000Y-108500000D03*
%TD*%
D12*
%TO.C,R6*%
X162175000Y-57510000D03*
X163825000Y-57510000D03*
%TD*%
D16*
%TO.C,C2*%
X135525000Y-49500000D03*
X137075000Y-49500000D03*
%TD*%
D15*
%TO.C,TP8*%
X174000000Y-115550000D03*
%TD*%
D43*
%TO.C,C14*%
X167500000Y-75185000D03*
X167500000Y-73635000D03*
%TD*%
%TO.C,C15*%
X171000000Y-74685000D03*
X171000000Y-73135000D03*
%TD*%
D16*
%TO.C,C13*%
X136000000Y-63500000D03*
X137550000Y-63500000D03*
%TD*%
D44*
%TO.C,J4*%
X115500000Y-77500000D03*
D24*
X110420000Y-79660000D03*
D25*
X112960000Y-79660000D03*
X115500000Y-79660000D03*
X118040000Y-79660000D03*
%TD*%
D23*
%TO.C,D4*%
X117000000Y-117500000D03*
X118575000Y-117500000D03*
%TD*%
D34*
%TO.C,Q1*%
X130500000Y-108500000D03*
X130500000Y-110400000D03*
X132375000Y-109450000D03*
%TD*%
D15*
%TO.C,TP5*%
X171000000Y-103000000D03*
%TD*%
D45*
%TO.C,J2*%
X104610000Y-45895000D03*
X110390000Y-45895000D03*
D46*
X104300000Y-44820000D03*
X105100000Y-44820000D03*
D47*
X106250000Y-44820000D03*
X107250000Y-44820000D03*
X107750000Y-44820000D03*
X108750000Y-44820000D03*
D46*
X109900000Y-44820000D03*
X110700000Y-44820000D03*
X110700000Y-44820000D03*
X109900000Y-44820000D03*
D47*
X109250000Y-44820000D03*
X108250000Y-44820000D03*
X106750000Y-44820000D03*
X105750000Y-44820000D03*
D46*
X105100000Y-44820000D03*
X104300000Y-44820000D03*
D48*
X103180000Y-45395000D03*
D49*
X103180000Y-49575000D03*
D48*
X111820000Y-45395000D03*
D49*
X111820000Y-49575000D03*
%TD*%
%LPD*%
M02*
