M48
; DRILL file KiCad 10.0.5 date 2026-08-09T14:36:12
; FORMAT={-:-/ absolute / metric / decimal}
; #@! TF.CreationDate,2026-08-09T14:36:12+05:30
; #@! TF.GenerationSoftware,Kicad,Pcbnew,10.0.5
; #@! TF.FileFunction,Plated,1,2,PTH
FMAT,2
METRIC
; #@! TA.AperFunction,Plated,PTH,ComponentDrill
T1C0.200
; #@! TA.AperFunction,Plated,PTH,ViaDrill
T2C0.300
; #@! TA.AperFunction,Plated,PTH,ComponentDrill
T3C0.600
; #@! TA.AperFunction,Plated,PTH,ComponentDrill
T4C1.000
; #@! TA.AperFunction,Plated,PTH,ComponentDrill
T5C1.020
%
G90
G05
T1
X171.4Y-57.76
X171.4Y-59.16
X172.1Y-57.06
X172.1Y-58.46
X172.1Y-59.86
X172.8Y-57.76
X172.8Y-59.16
X173.5Y-57.06
X173.5Y-58.46
X173.5Y-59.86
X174.2Y-57.76
X174.2Y-59.16
T2
X85.225Y-58.802
X86.0Y-84.5
X86.65Y-82.64
X88.0Y-78.9
X89.819Y-80.1
X90.27Y-102.0
X90.27Y-102.0
X91.495Y-104.07
X91.5Y-106.72
X92.5Y-104.0
X93.695Y-98.5
X94.25Y-93.5
X94.445Y-101.5
X97.0Y-101.875
X97.0Y-101.875
X97.0Y-104.0
X97.291Y-108.209
X97.65Y-77.0
X100.0Y-74.5
X101.0Y-106.72
X101.25Y-83.75
X102.2Y-104.049
X102.25Y-55.5
X102.25Y-58.5
X104.0Y-106.72
X104.8Y-66.8
X104.9Y-115.653
X105.0Y-86.625
X105.65Y-46.0
X106.0Y-77.5
X106.425Y-116.5
X107.0Y-46.0
X107.5Y-70.875
X107.914Y-45.914
X108.0Y-105.02
X108.1Y-101.9
X108.325Y-113.0
X108.5Y-55.25
X108.829Y-60.02
X109.099Y-106.901
X109.5Y-55.25
X109.628Y-59.979
X109.674Y-108.326
X109.875Y-109.5
X109.9Y-44.987
X110.5Y-86.625
X112.0Y-58.0
X112.0Y-70.875
X112.0Y-110.5
X114.0Y-109.5
X118.0Y-82.15
X118.875Y-87.1
X118.875Y-102.5
X120.125Y-87.1
X120.5Y-114.0
X122.0Y-82.8
X122.0Y-106.72
X124.0Y-79.5
X124.475Y-84.0
X125.875Y-69.0
X126.332Y-79.332
X126.625Y-83.4
X127.104Y-82.759
X127.5Y-79.475
X127.9Y-87.1
X128.0Y-115.325
X128.375Y-82.8
X128.5Y-107.12
X128.625Y-67.25
X129.625Y-93.0
X136.0Y-59.875
X136.0Y-63.5
X136.5Y-108.85
X140.5Y-61.125
X140.831Y-109.831
X141.3Y-61.125
X143.0Y-57.4
X144.5Y-100.4
X148.5Y-45.5
X148.5Y-59.379
X153.0Y-101.9
X153.35Y-91.01
X154.377Y-102.377
X155.0Y-88.75
X155.0Y-91.01
X156.575Y-120.925
X157.826Y-115.325
X159.5Y-58.779
X159.75Y-86.565
X159.75Y-87.5
X160.5Y-53.5
X161.125Y-71.875
X162.175Y-55.0
X162.175Y-57.51
X162.5Y-107.72
X162.571Y-61.929
X163.821Y-63.179
X163.861Y-90.25
X164.0Y-54.825
X164.0Y-75.0
X164.3Y-61.324
X164.51Y-94.01
X165.0Y-85.0
X165.0Y-105.92
X165.796Y-108.195
X165.849Y-81.349
X165.95Y-79.875
X166.69Y-87.422
X166.82Y-66.829
X166.875Y-63.899
X167.326Y-105.826
X167.5Y-67.25
X167.577Y-89.525
X167.808Y-91.618
X167.825Y-70.651
X167.825Y-76.73
X168.0Y-80.325
X168.0Y-90.6
X168.5Y-61.079
X169.339Y-92.265
X169.403Y-93.214
X170.125Y-70.625
X170.432Y-69.886
X171.375Y-77.04
X174.436Y-117.2
X175.56Y-73.5
X175.56Y-74.3
X175.864Y-65.98
X176.064Y-81.039
X176.154Y-80.1
X176.805Y-70.599
X176.805Y-69.75
X176.817Y-66.933
X177.325Y-68.5
X177.5Y-63.0
X177.759Y-66.991
X178.643Y-66.991
X179.475Y-72.5
X179.889Y-53.111
X181.0Y-65.355
X181.5Y-67.25
T4
X87.41Y-87.5
X87.41Y-90.04
X92.0Y-87.5
X92.0Y-90.04
X132.5Y-62.595
X132.5Y-65.135
X135.9Y-114.0
X143.5Y-114.0
X177.5Y-77.46
X177.5Y-80.0
T5
X110.42Y-79.66
X112.96Y-79.66
X115.5Y-79.66
X118.04Y-79.66
X144.45Y-87.625
X146.99Y-87.625
X149.53Y-87.625
T3
G00X103.18Y-44.845
M15
G01X103.18Y-45.945
M16
G05
G00X103.18Y-49.175
M15
G01X103.18Y-49.975
M16
G05
G00X111.82Y-44.845
M15
G01X111.82Y-45.945
M16
G05
G00X111.82Y-49.175
M15
G01X111.82Y-49.975
M16
G05
M30
